<?xml version="1.0" encoding="UTF-8"?>
<svg xmlns="http://www.w3.org/2000/svg" xmlns:xlink="http://www.w3.org/1999/xlink" width="50px" height="50px" viewBox="0 0 50 50" version="1.1">
<g id="surface1">
<path style=" stroke:none;fill-rule:nonzero;fill:rgb(76.078431%,2.745098%,18.039216%);fill-opacity:1;" d="M 24.988281 0 C 11.210938 0 0 11.210938 0 24.988281 C 0 38.761719 11.210938 49.972656 24.988281 49.972656 C 38.769531 49.972656 49.976562 38.761719 49.976562 24.988281 C 49.976562 11.210938 38.769531 0 24.988281 0 Z M 24.988281 1.046875 C 38.191406 1.046875 48.925781 11.785156 48.925781 24.988281 C 48.925781 38.183594 38.191406 48.921875 24.988281 48.921875 C 11.789062 48.921875 1.046875 38.183594 1.046875 24.988281 C 1.046875 11.785156 11.789062 1.046875 24.988281 1.046875 Z M 22.691406 2.566406 L 22.691406 2.792969 C 22.875 2.804688 22.992188 2.816406 23.027344 2.824219 L 23.113281 2.871094 L 23.152344 2.957031 C 23.164062 2.996094 23.167969 3.082031 23.167969 3.214844 L 23.183594 3.984375 L 23.183594 4.84375 C 23.183594 5.078125 23.175781 5.273438 23.167969 5.421875 C 23.160156 5.679688 23.140625 5.839844 23.132812 5.910156 L 23.097656 6.007812 L 23.046875 6.039062 C 23.019531 6.050781 22.898438 6.054688 22.691406 6.070312 L 22.691406 6.300781 C 22.988281 6.289062 23.21875 6.28125 23.394531 6.28125 C 23.433594 6.28125 23.628906 6.28125 23.96875 6.289062 L 23.96875 6.070312 L 23.914062 6.074219 L 23.664062 6.050781 L 23.570312 6.019531 L 23.535156 5.972656 C 23.519531 5.925781 23.507812 5.804688 23.503906 5.597656 C 23.492188 5.304688 23.488281 5.011719 23.488281 4.734375 L 23.488281 3.410156 C 24.542969 4.691406 25.355469 5.65625 25.929688 6.300781 C 26.082031 6.316406 26.234375 6.34375 26.386719 6.367188 L 26.417969 6.34375 C 26.394531 6.089844 26.386719 5.375 26.386719 4.191406 C 26.386719 4.039062 26.386719 3.804688 26.394531 3.492188 C 26.40625 3.171875 26.421875 2.964844 26.449219 2.878906 L 26.480469 2.839844 C 26.519531 2.816406 26.648438 2.796875 26.867188 2.792969 L 26.867188 2.566406 C 26.585938 2.578125 26.359375 2.582031 26.183594 2.582031 C 26.003906 2.582031 25.808594 2.578125 25.585938 2.566406 L 25.585938 2.792969 C 25.824219 2.796875 25.964844 2.816406 26.003906 2.84375 L 26.054688 2.972656 C 26.070312 3.144531 26.082031 3.703125 26.082031 4.660156 L 26.082031 5.277344 C 25.835938 5.027344 25.527344 4.671875 25.152344 4.214844 C 24.628906 3.597656 24.191406 3.050781 23.824219 2.566406 L 23.574219 2.578125 L 23.1875 2.582031 C 23.082031 2.582031 22.917969 2.578125 22.691406 2.566406 Z M 21.738281 2.714844 L 21.15625 2.863281 L 21.085938 2.886719 C 21.027344 2.898438 20.835938 2.9375 20.515625 2.996094 L 20.566406 3.214844 C 20.761719 3.171875 20.890625 3.160156 20.960938 3.179688 L 21.035156 3.226562 C 21.066406 3.269531 21.109375 3.398438 21.164062 3.617188 C 21.191406 3.71875 21.257812 4.003906 21.363281 4.460938 L 21.484375 5 C 21.578125 5.367188 21.605469 5.632812 21.570312 5.78125 C 21.542969 5.925781 21.464844 6.054688 21.335938 6.175781 C 21.214844 6.289062 21.027344 6.382812 20.785156 6.4375 C 20.570312 6.484375 20.394531 6.496094 20.242188 6.460938 C 20.089844 6.4375 19.96875 6.378906 19.882812 6.289062 C 19.789062 6.207031 19.71875 6.082031 19.664062 5.917969 C 19.636719 5.847656 19.589844 5.652344 19.515625 5.332031 L 19.441406 5.027344 L 19.296875 4.417969 C 19.214844 4.046875 19.167969 3.804688 19.167969 3.691406 L 19.199219 3.585938 C 19.242188 3.539062 19.359375 3.5 19.546875 3.453125 L 19.492188 3.234375 L 19.398438 3.261719 L 19.046875 3.347656 L 18.691406 3.441406 L 17.835938 3.621094 L 17.890625 3.839844 L 18.242188 3.792969 L 18.316406 3.851562 L 18.386719 4.007812 C 18.449219 4.207031 18.5 4.417969 18.558594 4.671875 L 18.714844 5.335938 L 18.832031 5.835938 C 18.898438 6.117188 18.9375 6.28125 18.964844 6.347656 L 19.140625 6.644531 C 19.222656 6.734375 19.324219 6.8125 19.453125 6.875 C 19.578125 6.945312 19.734375 6.980469 19.914062 6.996094 C 20.160156 7.007812 20.417969 6.992188 20.683594 6.925781 C 20.910156 6.871094 21.105469 6.800781 21.269531 6.710938 C 21.429688 6.621094 21.5625 6.515625 21.667969 6.394531 C 21.769531 6.265625 21.839844 6.132812 21.878906 6.003906 C 21.925781 5.863281 21.9375 5.710938 21.921875 5.535156 C 21.902344 5.363281 21.878906 5.195312 21.839844 5.039062 L 21.695312 4.417969 C 21.652344 4.242188 21.605469 3.992188 21.542969 3.675781 C 21.480469 3.359375 21.449219 3.175781 21.457031 3.132812 L 21.488281 3.039062 C 21.523438 3.003906 21.625 2.964844 21.785156 2.933594 Z M 27.75 2.792969 L 27.71875 3.015625 C 27.902344 3.050781 28.011719 3.074219 28.039062 3.085938 L 28.097656 3.125 L 28.113281 3.179688 C 28.113281 3.234375 28.101562 3.371094 28.082031 3.589844 C 28.070312 3.691406 28.039062 3.910156 27.988281 4.246094 L 27.832031 5.316406 C 27.804688 5.488281 27.769531 5.679688 27.722656 5.878906 C 27.691406 6.019531 27.675781 6.171875 27.664062 6.1875 L 27.640625 6.226562 L 27.558594 6.246094 C 27.53125 6.246094 27.421875 6.238281 27.253906 6.214844 L 27.214844 6.441406 C 27.429688 6.460938 27.675781 6.496094 27.949219 6.535156 C 28.269531 6.585938 28.5625 6.628906 28.839844 6.6875 L 28.875 6.460938 C 28.707031 6.433594 28.605469 6.410156 28.570312 6.394531 L 28.5 6.359375 L 28.472656 6.300781 C 28.464844 6.242188 28.472656 6.050781 28.5 5.878906 L 28.5625 5.40625 L 28.714844 4.375 C 28.722656 4.347656 28.757812 4.117188 28.828125 3.699219 C 28.847656 3.574219 28.867188 3.496094 28.875 3.449219 L 28.925781 3.289062 L 28.957031 3.253906 L 29.03125 3.234375 C 29.066406 3.226562 29.167969 3.234375 29.335938 3.261719 L 29.378906 3.035156 C 29.09375 3 28.800781 2.960938 28.488281 2.917969 C 28.210938 2.875 27.964844 2.835938 27.75 2.792969 Z M 30.21875 3.214844 L 30.148438 3.425781 C 30.304688 3.480469 30.398438 3.53125 30.4375 3.574219 C 30.464844 3.601562 30.492188 3.691406 30.515625 3.835938 C 30.535156 3.984375 30.574219 4.4375 30.632812 5.179688 L 30.707031 6.144531 C 30.730469 6.496094 30.761719 6.871094 30.785156 7.261719 L 31.164062 7.390625 C 31.355469 7.136719 31.703125 6.714844 32.210938 6.132812 L 32.8125 5.449219 L 33.125 5.09375 C 33.378906 4.796875 33.535156 4.648438 33.59375 4.621094 C 33.625 4.613281 33.722656 4.621094 33.882812 4.671875 L 33.957031 4.449219 L 33.417969 4.289062 L 32.796875 4.066406 L 32.726562 4.28125 L 32.988281 4.386719 L 33.074219 4.425781 L 33.101562 4.472656 L 33.09375 4.539062 L 33.070312 4.601562 C 33.03125 4.660156 32.9375 4.777344 32.800781 4.953125 C 32.601562 5.195312 32.496094 5.335938 32.472656 5.363281 L 31.46875 6.542969 L 31.347656 4.808594 L 31.347656 4.757812 C 31.347656 4.742188 31.339844 4.648438 31.328125 4.476562 C 31.304688 4.175781 31.300781 3.996094 31.320312 3.949219 L 31.363281 3.894531 L 31.449219 3.886719 C 31.523438 3.890625 31.625 3.917969 31.757812 3.960938 L 31.832031 3.746094 L 30.9375 3.46875 C 30.851562 3.441406 30.613281 3.355469 30.21875 3.214844 Z M 34.742188 4.820312 L 34.628906 5.015625 C 34.800781 5.128906 34.898438 5.203125 34.925781 5.242188 L 34.945312 5.304688 C 34.941406 5.34375 34.886719 5.453125 34.796875 5.628906 C 34.652344 5.882812 34.570312 6.035156 34.542969 6.070312 L 33.957031 7.085938 C 33.886719 7.203125 33.773438 7.390625 33.613281 7.640625 C 33.527344 7.773438 33.457031 7.875 33.414062 7.933594 L 33.117188 7.9375 L 33.046875 8.058594 C 33.519531 8.316406 33.769531 8.460938 33.804688 8.484375 C 33.941406 8.558594 34.1875 8.703125 34.539062 8.914062 L 34.898438 9.136719 C 35.078125 9.242188 35.214844 9.3125 35.320312 9.351562 L 35.363281 9.34375 C 35.480469 9.148438 35.636719 8.914062 35.84375 8.636719 L 35.660156 8.527344 C 35.507812 8.714844 35.402344 8.835938 35.332031 8.890625 L 35.277344 8.910156 C 35.238281 8.914062 35.144531 8.882812 35.003906 8.8125 C 34.859375 8.742188 34.703125 8.660156 34.539062 8.566406 C 34.371094 8.46875 34.230469 8.386719 34.117188 8.304688 L 34.269531 8.023438 L 34.824219 7.0625 C 34.921875 7.113281 35.046875 7.183594 35.195312 7.261719 C 35.351562 7.355469 35.484375 7.445312 35.574219 7.519531 L 35.644531 7.628906 C 35.644531 7.6875 35.59375 7.804688 35.484375 7.976562 L 35.679688 8.089844 L 35.957031 7.585938 L 36.257812 7.09375 L 36.070312 6.992188 C 35.996094 7.117188 35.921875 7.214844 35.871094 7.257812 L 35.816406 7.285156 L 35.660156 7.222656 C 35.445312 7.101562 35.320312 7.03125 35.28125 7.007812 L 34.96875 6.820312 L 35.238281 6.355469 C 35.386719 6.089844 35.527344 5.878906 35.644531 5.726562 C 35.789062 5.796875 35.933594 5.863281 36.066406 5.949219 C 36.207031 6.03125 36.351562 6.121094 36.488281 6.226562 L 36.648438 6.367188 L 36.648438 6.425781 C 36.632812 6.472656 36.578125 6.585938 36.480469 6.765625 L 36.652344 6.867188 C 36.78125 6.679688 36.851562 6.574219 36.867188 6.558594 L 37.097656 6.257812 L 37.097656 6.214844 L 37.027344 6.160156 C 36.867188 6.054688 36.765625 5.992188 36.707031 5.960938 L 36.242188 5.703125 C 35.984375 5.5625 35.757812 5.433594 35.554688 5.3125 L 35.253906 5.140625 Z M 13.992188 5.644531 C 13.835938 5.664062 13.632812 5.726562 13.386719 5.8125 C 13.144531 5.90625 12.890625 6.027344 12.640625 6.1875 C 12.429688 6.3125 12.253906 6.453125 12.105469 6.59375 C 11.953125 6.734375 11.828125 6.890625 11.722656 7.074219 C 11.617188 7.253906 11.546875 7.449219 11.503906 7.652344 C 11.460938 7.867188 11.457031 8.074219 11.5 8.292969 C 11.539062 8.507812 11.632812 8.734375 11.777344 8.964844 C 11.949219 9.242188 12.160156 9.464844 12.40625 9.621094 C 12.566406 9.726562 12.75 9.796875 12.953125 9.84375 C 13.164062 9.890625 13.382812 9.898438 13.613281 9.867188 C 13.941406 9.816406 14.269531 9.691406 14.601562 9.472656 C 14.8125 9.347656 15 9.199219 15.179688 9.03125 C 15.359375 8.863281 15.558594 8.636719 15.769531 8.359375 L 15.53125 8.027344 C 15.488281 7.953125 15.417969 7.828125 15.3125 7.652344 L 15.257812 7.515625 L 15.382812 7.335938 L 15.289062 7.1875 L 14.625 7.621094 L 13.957031 8.027344 L 14.066406 8.203125 C 14.308594 8.074219 14.457031 8 14.515625 7.988281 L 14.601562 7.988281 C 14.628906 8.003906 14.6875 8.085938 14.777344 8.226562 L 14.90625 8.4375 L 15.039062 8.667969 L 14.816406 8.945312 L 14.546875 9.15625 C 14.207031 9.371094 13.835938 9.417969 13.4375 9.3125 C 13.039062 9.199219 12.703125 8.921875 12.429688 8.484375 C 12.175781 8.074219 12.089844 7.695312 12.167969 7.320312 C 12.246094 6.953125 12.46875 6.648438 12.84375 6.417969 C 13.003906 6.316406 13.15625 6.246094 13.304688 6.207031 C 13.453125 6.164062 13.597656 6.144531 13.734375 6.148438 L 13.925781 6.183594 L 14.050781 6.339844 L 14.195312 6.542969 L 14.371094 6.433594 C 14.195312 6.082031 14.082031 5.828125 14.035156 5.675781 Z M 38.074219 6.808594 L 37.945312 6.972656 C 38.09375 7.125 38.183594 7.222656 38.207031 7.261719 L 38.207031 7.320312 C 38.191406 7.363281 38.113281 7.46875 37.980469 7.640625 L 37.640625 8.074219 L 37.027344 8.820312 L 36.523438 9.398438 L 36.304688 9.609375 L 36.246094 9.65625 L 36.191406 9.644531 C 36.160156 9.636719 36.058594 9.566406 35.902344 9.445312 L 35.757812 9.621094 C 35.9375 9.757812 36.140625 9.914062 36.347656 10.089844 C 36.582031 10.28125 36.8125 10.480469 37.039062 10.671875 L 37.179688 10.5 C 37.050781 10.390625 36.984375 10.320312 36.957031 10.289062 L 36.914062 10.222656 L 36.910156 10.175781 L 37.011719 10.011719 C 37.042969 9.964844 37.164062 9.8125 37.386719 9.523438 C 37.570312 9.300781 37.742188 9.085938 37.90625 8.882812 C 38.015625 8.753906 38.230469 8.507812 38.546875 8.132812 C 38.6875 7.96875 38.785156 7.867188 38.828125 7.8125 L 39.03125 7.960938 C 39.179688 8.074219 39.269531 8.167969 39.308594 8.242188 C 39.371094 8.339844 39.394531 8.460938 39.390625 8.59375 C 39.382812 8.71875 39.324219 8.851562 39.222656 8.96875 C 39.125 9.085938 39.003906 9.175781 38.867188 9.226562 C 38.726562 9.285156 38.597656 9.296875 38.492188 9.265625 C 38.375 9.242188 38.238281 9.15625 38.085938 9.015625 L 38.007812 9.0625 L 38.023438 9.300781 C 38.011719 9.488281 37.984375 9.734375 37.945312 10.035156 L 37.785156 11.101562 L 37.738281 11.253906 L 38.066406 11.511719 C 38.164062 11.585938 38.304688 11.714844 38.511719 11.886719 L 38.648438 11.71875 L 38.527344 11.601562 L 38.503906 11.496094 C 38.503906 11.453125 38.511719 11.328125 38.519531 11.105469 C 38.519531 11.09375 38.527344 10.992188 38.550781 10.800781 L 38.625 10.070312 L 38.632812 10.011719 L 38.648438 9.835938 L 38.6875 9.558594 C 38.964844 9.652344 39.207031 9.675781 39.410156 9.625 C 39.625 9.578125 39.792969 9.46875 39.925781 9.304688 C 40.042969 9.167969 40.097656 9.027344 40.105469 8.867188 C 40.113281 8.710938 40.074219 8.574219 39.996094 8.460938 C 39.914062 8.339844 39.769531 8.195312 39.558594 8.023438 C 39.449219 7.933594 39.308594 7.824219 39.140625 7.695312 C 39.03125 7.617188 38.90625 7.515625 38.769531 7.402344 C 38.601562 7.265625 38.472656 7.160156 38.390625 7.082031 C 38.210938 6.925781 38.109375 6.835938 38.074219 6.808594 Z M 25.050781 7.59375 C 16.546875 7.59375 9.230469 13.863281 7.917969 22.21875 C 7.75 22.683594 7.203125 24.488281 8.070312 26.375 C 8.070312 26.375 7.246094 25.945312 6.886719 25.90625 C 6.886719 25.90625 6.636719 27.417969 7.570312 28.5 C 7.570312 28.5 6.8125 28.359375 5.984375 28.824219 C 5.984375 28.824219 6.847656 30.660156 8.792969 31.269531 C 8.792969 31.269531 8.9375 31.628906 9.082031 31.882812 C 9.082031 31.882812 7.785156 31.664062 6.527344 32.207031 C 6.527344 32.207031 7.570312 33.359375 7.964844 33.542969 C 7.964844 33.542969 8.9375 34.152344 9.441406 34.226562 L 9.042969 34.363281 C 9.042969 34.363281 10.847656 36.777344 12.464844 37.066406 C 12.464844 37.066406 11.320312 37.382812 10.882812 37.929688 C 10.882812 37.929688 12.933594 39.835938 15.632812 39.261719 C 15.632812 39.261719 15.050781 39.871094 14.769531 40.484375 C 14.769531 40.484375 16.566406 40.988281 18.367188 40.335938 L 18.183594 40.773438 C 18.183594 40.773438 19.371094 41.019531 21.101562 39.871094 L 21.820312 40.378906 C 21.820312 40.378906 19.734375 40.734375 18.367188 41.238281 L 19.804688 42.285156 C 19.804688 42.285156 19.953125 42.132812 20.921875 41.675781 C 20.921875 41.675781 23.625 42.226562 25.046875 42.175781 C 26.476562 42.226562 29.175781 41.675781 29.175781 41.675781 C 30.148438 42.132812 30.292969 42.285156 30.292969 42.285156 L 31.726562 41.238281 C 30.363281 40.734375 28.277344 40.378906 28.277344 40.378906 L 28.992188 39.871094 C 30.722656 41.019531 31.910156 40.773438 31.910156 40.773438 L 31.726562 40.335938 C 33.53125 40.988281 35.328125 40.484375 35.328125 40.484375 C 35.042969 39.871094 34.464844 39.261719 34.464844 39.261719 C 37.164062 39.835938 39.214844 37.929688 39.214844 37.929688 C 38.777344 37.382812 37.632812 37.066406 37.632812 37.066406 C 39.25 36.777344 41.054688 34.363281 41.054688 34.363281 L 40.65625 34.226562 C 41.160156 34.152344 42.132812 33.542969 42.132812 33.542969 C 42.527344 33.359375 43.570312 32.207031 43.570312 32.207031 C 42.3125 31.664062 41.019531 31.882812 41.019531 31.882812 C 41.160156 31.628906 41.304688 31.269531 41.304688 31.269531 C 43.246094 30.660156 44.109375 28.824219 44.109375 28.824219 C 43.277344 28.359375 42.527344 28.5 42.527344 28.5 C 43.460938 27.417969 43.210938 25.90625 43.210938 25.90625 C 42.851562 25.945312 42.019531 26.375 42.019531 26.375 C 42.945312 24.371094 42.28125 22.472656 42.160156 22.15625 C 40.820312 13.828125 33.523438 7.59375 25.050781 7.59375 Z M 9.921875 8.132812 C 9.75 8.351562 9.605469 8.527344 9.492188 8.660156 C 9.367188 8.792969 9.234375 8.945312 9.082031 9.097656 L 9.246094 9.242188 C 9.410156 9.070312 9.511719 8.972656 9.566406 8.964844 L 9.691406 9.015625 C 9.832031 9.109375 10.261719 9.472656 10.980469 10.101562 L 11.445312 10.507812 C 11.089844 10.527344 10.621094 10.527344 10.035156 10.515625 C 9.222656 10.496094 8.515625 10.464844 7.917969 10.421875 L 7.761719 10.613281 L 7.511719 10.90625 C 7.445312 10.992188 7.328125 11.109375 7.167969 11.273438 L 7.339844 11.421875 C 7.472656 11.289062 7.554688 11.210938 7.589844 11.191406 L 7.679688 11.15625 L 7.769531 11.183594 L 7.96875 11.335938 L 8.558594 11.839844 L 9.203125 12.40625 C 9.382812 12.558594 9.523438 12.683594 9.628906 12.792969 C 9.8125 12.972656 9.933594 13.09375 9.972656 13.140625 L 10.023438 13.234375 L 10.015625 13.296875 C 10.003906 13.320312 9.933594 13.421875 9.800781 13.582031 L 9.972656 13.734375 C 10.160156 13.507812 10.3125 13.328125 10.425781 13.191406 C 10.453125 13.164062 10.582031 13.019531 10.804688 12.765625 L 10.644531 12.625 L 10.613281 12.664062 L 10.429688 12.84375 L 10.351562 12.890625 L 10.289062 12.882812 C 10.242188 12.867188 10.140625 12.792969 9.980469 12.660156 C 9.753906 12.46875 9.53125 12.285156 9.324219 12.105469 L 8.328125 11.226562 C 9.988281 11.285156 11.25 11.308594 12.109375 11.296875 C 12.226562 11.195312 12.34375 11.097656 12.460938 11.003906 L 12.464844 10.957031 C 12.261719 10.808594 11.714844 10.347656 10.828125 9.566406 C 10.714844 9.46875 10.539062 9.3125 10.308594 9.097656 C 10.074219 8.878906 9.933594 8.730469 9.886719 8.65625 L 9.875 8.605469 C 9.878906 8.558594 9.957031 8.453125 10.09375 8.28125 Z M 25.050781 8.539062 C 33.167969 8.539062 40.148438 14.59375 41.273438 22.628906 L 41.28125 22.628906 C 41.058594 22.820312 40.871094 23.027344 40.707031 23.25 L 40.332031 23.882812 C 39.65625 25.289062 39.824219 26.84375 39.824219 26.84375 C 38.386719 25.546875 36.121094 26.597656 36.121094 26.597656 C 36.191406 26.84375 36.949219 27.417969 36.949219 27.417969 C 36.984375 30.144531 38.601562 30.695312 38.601562 30.695312 C 38.027344 31.125 37.882812 31.597656 37.882812 31.597656 C 37.054688 30.550781 35.21875 30.769531 35.21875 30.769531 C 35.21875 32.671875 37.234375 33.609375 37.234375 33.609375 C 37.054688 34.4375 37.164062 34.839844 37.164062 34.839844 C 36.480469 35.160156 35.726562 36.097656 35.726562 36.097656 C 35.941406 34.074219 35.21875 33.394531 35.21875 33.394531 C 33.996094 34.117188 33.496094 35.480469 33.496094 35.480469 C 31.441406 35.695312 30.324219 37.171875 30.324219 37.171875 L 30.46875 36.523438 C 26.652344 37.351562 26.6875 40.046875 26.6875 40.046875 L 26.511719 39.980469 C 26.308594 38.753906 25.171875 38.78125 25.046875 38.792969 C 24.925781 38.78125 23.792969 38.753906 23.585938 39.980469 L 23.402344 40.046875 C 23.402344 40.046875 23.4375 37.351562 19.625 36.523438 L 19.769531 37.171875 C 19.769531 37.171875 18.652344 35.695312 16.601562 35.480469 C 16.601562 35.480469 16.097656 34.117188 14.875 33.394531 C 14.875 33.394531 14.15625 34.074219 14.371094 36.097656 C 14.371094 36.097656 13.617188 35.160156 12.933594 34.839844 C 12.933594 34.839844 13.039062 34.4375 12.859375 33.609375 C 12.859375 33.609375 14.875 32.671875 14.875 30.769531 C 14.875 30.769531 13.039062 30.550781 12.210938 31.597656 C 12.210938 31.597656 12.066406 31.125 11.492188 30.695312 C 11.492188 30.695312 13.113281 30.144531 13.148438 27.417969 C 13.148438 27.417969 13.902344 26.84375 13.976562 26.597656 C 13.976562 26.597656 11.707031 25.546875 10.273438 26.84375 C 10.273438 26.84375 10.578125 24.085938 8.785156 22.605469 L 8.820312 22.609375 C 9.949219 14.582031 16.929688 8.539062 25.050781 8.539062 Z M 24.992188 9.761719 L 24.992188 9.773438 L 24.3125 10.480469 L 24.277344 11.742188 C 22.554688 12.046875 18.433594 13.316406 20.003906 18.519531 C 20.003906 18.519531 13.882812 21.324219 14.234375 26.4375 C 14.234375 26.4375 13.882812 31.949219 19.785156 32.25 C 19.785156 32.25 24.417969 32.449219 23.460938 28.339844 L 21.496094 28.339844 C 21.496094 28.339844 22.847656 30.457031 20.441406 30.804688 C 20.441406 30.804688 17.640625 31.289062 17.816406 26.828125 C 17.816406 26.828125 18.125 21.671875 22.058594 18.609375 C 22.058594 18.609375 20.746094 17.121094 21.445312 15.328125 C 21.445312 15.328125 22.023438 13.316406 24.246094 12.808594 L 24.046875 19.859375 L 24.992188 20.433594 L 24.992188 20.449219 L 25 20.4375 L 25.011719 20.449219 L 25.011719 20.433594 L 25.949219 19.859375 L 25.753906 12.816406 C 27.957031 13.328125 28.53125 15.328125 28.53125 15.328125 C 29.230469 17.121094 27.914062 18.609375 27.914062 18.609375 C 31.855469 21.671875 32.160156 26.828125 32.160156 26.828125 C 32.335938 31.289062 29.535156 30.804688 29.535156 30.804688 C 27.132812 30.457031 28.484375 28.339844 28.484375 28.339844 L 26.515625 28.339844 C 25.554688 32.449219 30.191406 32.25 30.191406 32.25 C 36.09375 31.949219 35.75 26.4375 35.75 26.4375 C 36.09375 21.324219 29.972656 18.519531 29.972656 18.519531 C 31.539062 13.339844 27.460938 12.058594 25.722656 11.75 L 25.683594 10.480469 L 25.011719 9.773438 L 25.011719 9.761719 Z M 41.417969 10.273438 C 41.332031 10.269531 41.246094 10.28125 41.15625 10.300781 C 40.964844 10.332031 40.804688 10.40625 40.648438 10.527344 L 40.375 10.816406 C 40.308594 10.929688 40.269531 11.050781 40.253906 11.175781 C 40.246094 11.300781 40.269531 11.4375 40.320312 11.585938 C 40.355469 11.683594 40.445312 11.878906 40.589844 12.171875 C 40.683594 12.382812 40.738281 12.53125 40.753906 12.628906 L 40.71875 12.894531 L 40.535156 13.117188 L 40.199219 13.269531 C 40.082031 13.277344 39.960938 13.253906 39.832031 13.183594 C 39.707031 13.117188 39.59375 13.019531 39.488281 12.886719 C 39.375 12.734375 39.300781 12.570312 39.269531 12.394531 C 39.234375 12.210938 39.238281 12.0625 39.289062 11.945312 C 39.421875 11.8125 39.539062 11.710938 39.640625 11.632812 L 39.503906 11.457031 C 39.183594 11.710938 38.921875 11.871094 38.730469 11.949219 C 38.777344 12.171875 38.832031 12.363281 38.90625 12.515625 C 38.976562 12.671875 39.078125 12.84375 39.207031 13.011719 C 39.386719 13.242188 39.574219 13.425781 39.769531 13.535156 C 39.894531 13.605469 40.035156 13.660156 40.195312 13.695312 C 40.351562 13.726562 40.507812 13.734375 40.648438 13.714844 C 40.84375 13.6875 41.027344 13.597656 41.203125 13.464844 L 41.449219 13.210938 L 41.574219 12.953125 L 41.585938 12.675781 C 41.574219 12.578125 41.539062 12.460938 41.484375 12.328125 C 41.460938 12.273438 41.402344 12.171875 41.316406 12.003906 C 41.234375 11.84375 41.167969 11.710938 41.125 11.621094 C 41.070312 11.492188 41.039062 11.386719 41.03125 11.308594 L 41.070312 11.082031 L 41.257812 10.863281 C 41.386719 10.765625 41.535156 10.730469 41.714844 10.757812 C 41.890625 10.792969 42.046875 10.902344 42.195312 11.09375 C 42.289062 11.222656 42.355469 11.359375 42.398438 11.503906 C 42.429688 11.644531 42.433594 11.761719 42.40625 11.851562 C 42.347656 11.917969 42.234375 12.007812 42.082031 12.140625 L 42.210938 12.308594 C 42.355469 12.203125 42.480469 12.125 42.574219 12.0625 L 42.875 11.90625 L 42.910156 11.851562 C 42.878906 11.710938 42.828125 11.5625 42.746094 11.402344 C 42.667969 11.242188 42.570312 11.09375 42.457031 10.945312 C 42.347656 10.800781 42.226562 10.671875 42.089844 10.558594 C 41.957031 10.449219 41.8125 10.371094 41.660156 10.320312 C 41.578125 10.292969 41.5 10.277344 41.417969 10.273438 Z M 43.679688 12.632812 L 43.484375 12.757812 C 43.578125 12.921875 43.632812 13.019531 43.636719 13.042969 L 43.644531 13.113281 L 43.617188 13.164062 C 43.578125 13.199219 43.464844 13.277344 43.285156 13.402344 C 43.207031 13.460938 43.015625 13.578125 42.726562 13.753906 L 41.804688 14.328125 C 41.652344 14.421875 41.488281 14.519531 41.308594 14.613281 C 41.183594 14.679688 41.054688 14.761719 41.03125 14.773438 L 40.988281 14.777344 L 40.925781 14.722656 C 40.902344 14.703125 40.84375 14.621094 40.742188 14.476562 L 40.550781 14.589844 C 40.671875 14.769531 40.8125 14.976562 40.953125 15.207031 C 41.125 15.484375 41.273438 15.742188 41.417969 15.988281 L 41.609375 15.863281 C 41.527344 15.71875 41.472656 15.632812 41.464844 15.59375 L 41.449219 15.515625 L 41.476562 15.453125 C 41.515625 15.414062 41.660156 15.296875 41.808594 15.203125 L 42.210938 14.945312 L 43.097656 14.394531 C 43.125 14.382812 43.320312 14.265625 43.683594 14.046875 L 43.898438 13.921875 L 44.058594 13.851562 L 44.109375 13.855469 L 44.171875 13.894531 C 44.195312 13.921875 44.253906 14.003906 44.355469 14.152344 L 44.546875 14.03125 C 44.390625 13.796875 44.226562 13.546875 44.058594 13.277344 C 43.914062 13.039062 43.789062 12.828125 43.679688 12.632812 Z M 7.128906 12.707031 C 6.972656 12.699219 6.800781 12.71875 6.613281 12.773438 C 6.421875 12.828125 6.246094 12.917969 6.082031 13.042969 C 5.871094 13.214844 5.675781 13.433594 5.503906 13.703125 C 5.332031 13.972656 5.207031 14.242188 5.136719 14.523438 C 5.085938 14.746094 5.078125 14.96875 5.125 15.210938 C 5.164062 15.457031 5.261719 15.6875 5.40625 15.894531 C 5.558594 16.109375 5.761719 16.296875 6.035156 16.46875 C 6.382812 16.695312 6.71875 16.816406 7.039062 16.832031 C 7.359375 16.84375 7.65625 16.777344 7.933594 16.617188 C 8.203125 16.457031 8.453125 16.210938 8.660156 15.871094 C 8.863281 15.570312 8.984375 15.273438 9.042969 14.964844 C 9.078125 14.746094 9.074219 14.519531 9.027344 14.292969 C 8.976562 14.066406 8.890625 13.863281 8.757812 13.683594 C 8.578125 13.433594 8.355469 13.21875 8.078125 13.039062 C 7.914062 12.933594 7.75 12.851562 7.597656 12.800781 C 7.4375 12.742188 7.285156 12.710938 7.128906 12.707031 Z M 6.574219 13.402344 C 6.75 13.402344 6.933594 13.425781 7.136719 13.488281 C 7.335938 13.558594 7.542969 13.660156 7.746094 13.789062 C 8.050781 13.992188 8.273438 14.191406 8.433594 14.40625 C 8.589844 14.625 8.660156 14.835938 8.660156 15.042969 C 8.65625 15.246094 8.589844 15.441406 8.46875 15.628906 C 8.34375 15.820312 8.1875 15.972656 7.996094 16.058594 C 7.808594 16.144531 7.570312 16.167969 7.285156 16.113281 C 7 16.066406 6.683594 15.929688 6.339844 15.710938 C 6.101562 15.550781 5.90625 15.375 5.753906 15.179688 C 5.601562 14.988281 5.523438 14.777344 5.515625 14.566406 C 5.515625 14.34375 5.582031 14.128906 5.71875 13.921875 C 5.84375 13.726562 5.972656 13.597656 6.105469 13.527344 C 6.242188 13.453125 6.402344 13.410156 6.574219 13.402344 Z M 44.917969 14.652344 L 44.695312 14.773438 C 44.652344 14.792969 44.46875 14.878906 44.144531 15.023438 L 44.226562 15.226562 C 44.367188 15.167969 44.5 15.121094 44.625 15.097656 L 44.722656 15.089844 L 44.78125 15.175781 C 44.847656 15.300781 44.917969 15.453125 44.992188 15.625 L 45.144531 15.972656 C 45.097656 15.996094 44.878906 16.097656 44.484375 16.261719 L 43.035156 16.882812 C 42.6875 17.035156 42.472656 17.117188 42.398438 17.132812 L 42.269531 17.09375 C 42.234375 17.066406 42.167969 16.960938 42.082031 16.769531 L 41.882812 16.855469 C 42.023438 17.140625 42.144531 17.410156 42.246094 17.636719 C 42.339844 17.847656 42.441406 18.117188 42.5625 18.4375 L 42.761719 18.351562 C 42.6875 18.15625 42.648438 18.03125 42.652344 17.984375 L 42.710938 17.875 C 42.777344 17.824219 42.984375 17.726562 43.332031 17.578125 L 44.78125 16.957031 C 45.164062 16.789062 45.386719 16.695312 45.449219 16.675781 L 45.59375 17.019531 C 45.675781 17.210938 45.738281 17.375 45.777344 17.503906 L 45.796875 17.589844 L 45.707031 17.667969 C 45.597656 17.730469 45.484375 17.796875 45.359375 17.859375 L 45.445312 18.054688 C 45.789062 17.917969 45.96875 17.847656 45.980469 17.835938 L 46.25 17.753906 L 46.261719 17.714844 L 46.148438 17.503906 C 46.085938 17.371094 45.96875 17.09375 45.792969 16.691406 L 45.375 15.714844 C 45.203125 15.316406 45.089844 15.050781 45.035156 14.910156 L 44.949219 14.664062 Z M 4.207031 16.414062 C 4.152344 16.613281 4.074219 16.847656 3.976562 17.117188 C 3.863281 17.445312 3.742188 17.769531 3.621094 18.078125 L 3.839844 18.160156 L 3.964844 17.824219 L 4.027344 17.738281 L 4.085938 17.722656 C 4.117188 17.714844 4.222656 17.746094 4.394531 17.796875 C 4.574219 17.855469 4.761719 17.921875 4.972656 17.992188 L 6.917969 18.679688 C 6.957031 18.691406 7.144531 18.765625 7.492188 18.902344 C 7.667969 18.964844 7.777344 19.015625 7.828125 19.046875 L 7.921875 19.171875 L 7.910156 19.328125 L 7.820312 19.472656 L 7.609375 19.625 L 7.617188 19.691406 C 7.808594 19.757812 7.957031 19.8125 8.070312 19.867188 L 8.175781 19.679688 C 8.210938 19.589844 8.222656 19.484375 8.210938 19.363281 C 8.207031 19.242188 8.179688 19.113281 8.136719 18.972656 C 8.085938 18.828125 8.03125 18.703125 7.964844 18.59375 C 7.863281 18.433594 7.742188 18.296875 7.597656 18.191406 C 7.457031 18.085938 7.253906 17.992188 6.984375 17.894531 L 5.917969 17.527344 L 5.023438 17.210938 C 4.777344 17.121094 4.589844 17.050781 4.457031 16.988281 L 4.347656 16.910156 L 4.332031 16.796875 C 4.339844 16.761719 4.367188 16.660156 4.425781 16.492188 Z M 42.992188 18.808594 L 42.78125 18.863281 L 42.9375 19.445312 L 43.066406 20.035156 L 43.277344 19.988281 C 43.234375 19.78125 43.21875 19.65625 43.234375 19.609375 L 43.316406 19.546875 C 43.371094 19.53125 43.523438 19.535156 43.78125 19.574219 L 44.117188 19.609375 L 44.433594 20.925781 L 43.921875 21.28125 L 43.726562 21.386719 L 43.644531 21.363281 C 43.625 21.34375 43.585938 21.222656 43.523438 21.023438 L 43.316406 21.078125 L 43.542969 21.96875 L 43.703125 22.683594 L 43.914062 22.632812 L 43.898438 22.519531 L 43.882812 22.363281 L 43.898438 22.304688 L 43.957031 22.242188 L 44.167969 22.082031 L 44.480469 21.835938 L 46.871094 20.058594 L 46.789062 19.6875 L 46.148438 19.605469 L 44.34375 19.328125 C 44 19.277344 43.769531 19.246094 43.65625 19.226562 C 43.40625 19.183594 43.261719 19.160156 43.222656 19.148438 L 43.128906 19.109375 L 43.082031 19.046875 C 43.066406 19.027344 43.035156 18.945312 42.992188 18.808594 Z M 3.390625 18.992188 L 3.351562 19 L 3.316406 19.078125 C 3.261719 19.261719 3.238281 19.386719 3.222656 19.449219 L 3.117188 19.96875 C 3.050781 20.253906 2.996094 20.507812 2.941406 20.742188 L 2.863281 21.078125 L 2.710938 21.664062 L 2.929688 21.707031 C 2.988281 21.511719 3.027344 21.398438 3.058594 21.355469 L 3.105469 21.328125 C 3.148438 21.316406 3.269531 21.335938 3.464844 21.371094 C 3.75 21.433594 3.914062 21.46875 3.957031 21.476562 L 5.101562 21.742188 C 5.234375 21.777344 5.445312 21.835938 5.730469 21.914062 C 5.890625 21.957031 6.003906 21.992188 6.074219 22.019531 L 6.15625 22.300781 L 6.296875 22.335938 C 6.40625 21.808594 6.472656 21.519531 6.480469 21.480469 C 6.511719 21.332031 6.582031 21.050781 6.683594 20.652344 L 6.785156 20.246094 C 6.832031 20.046875 6.859375 19.890625 6.875 19.777344 L 6.847656 19.738281 C 6.628906 19.6875 6.359375 19.605469 6.035156 19.492188 L 5.984375 19.699219 C 6.203125 19.785156 6.351562 19.851562 6.425781 19.902344 L 6.460938 19.941406 C 6.476562 19.988281 6.472656 20.082031 6.445312 20.246094 C 6.421875 20.402344 6.386719 20.570312 6.347656 20.757812 C 6.304688 20.941406 6.261719 21.101562 6.21875 21.242188 C 6.128906 21.21875 6.027344 21.203125 5.90625 21.171875 L 4.832031 20.925781 C 4.847656 20.8125 4.871094 20.675781 4.910156 20.511719 C 4.953125 20.328125 4.996094 20.1875 5.042969 20.070312 L 5.128906 19.976562 C 5.183594 19.960938 5.308594 19.976562 5.503906 20.023438 L 5.550781 19.796875 L 4.996094 19.683594 L 4.441406 19.542969 L 4.390625 19.753906 C 4.542969 19.792969 4.648438 19.824219 4.703125 19.863281 L 4.746094 19.914062 L 4.730469 20.078125 C 4.679688 20.316406 4.652344 20.460938 4.648438 20.5 C 4.613281 20.628906 4.582031 20.746094 4.542969 20.851562 L 4.027344 20.734375 C 3.730469 20.664062 3.492188 20.597656 3.304688 20.53125 C 3.332031 20.371094 3.359375 20.214844 3.394531 20.066406 C 3.429688 19.90625 3.480469 19.742188 3.535156 19.578125 L 3.628906 19.386719 L 3.679688 19.363281 C 3.730469 19.363281 3.855469 19.386719 4.054688 19.425781 L 4.101562 19.230469 C 3.886719 19.167969 3.765625 19.125 3.742188 19.121094 Z M 44.4375 19.65625 L 45.878906 19.863281 L 44.695312 20.722656 C 44.652344 20.574219 44.605469 20.398438 44.558594 20.203125 C 44.511719 20 44.46875 19.816406 44.4375 19.65625 Z M 22.359375 20.519531 C 21.742188 20.515625 21.039062 20.65625 20.277344 21.054688 L 18.480469 27.140625 C 18.480469 27.140625 21.496094 25.472656 24.429688 27.488281 C 24.554688 27.570312 24.757812 27.625 24.992188 27.625 C 25.21875 27.625 25.421875 27.570312 25.542969 27.488281 L 25.558594 27.488281 C 28.488281 25.472656 31.503906 27.140625 31.503906 27.140625 L 29.710938 21.054688 C 26.996094 19.640625 25.050781 21.476562 24.992188 21.535156 C 24.953125 21.492188 23.933594 20.53125 22.359375 20.519531 Z M 22.441406 20.917969 C 23.140625 20.941406 24.007812 21.136719 24.992188 21.707031 L 24.992188 21.714844 L 24.992188 21.707031 C 27.617188 20.1875 29.40625 21.324219 29.40625 21.324219 L 30.71875 26.304688 C 27.773438 25.355469 25.050781 27.140625 24.988281 27.179688 C 24.9375 27.140625 22.207031 25.355469 19.269531 26.304688 L 20.574219 21.324219 C 20.574219 21.324219 21.277344 20.878906 22.441406 20.917969 Z M 26.414062 21.988281 L 26.394531 22.171875 L 26.542969 22.195312 L 26.589844 22.222656 L 26.605469 22.257812 L 26.613281 22.355469 C 26.613281 22.398438 26.605469 22.515625 26.601562 22.691406 L 26.578125 23.113281 L 26.53125 23.902344 C 26.515625 24.199219 26.492188 24.464844 26.476562 24.699219 L 26.449219 24.867188 L 26.425781 24.894531 L 26.242188 24.917969 L 26.230469 25.117188 C 26.339844 25.117188 26.464844 25.117188 26.585938 25.125 C 26.699219 25.136719 26.871094 25.144531 27.09375 25.171875 L 27.105469 24.96875 L 26.925781 24.945312 L 26.886719 24.910156 L 26.871094 24.875 C 26.867188 24.839844 26.867188 24.753906 26.871094 24.628906 C 26.878906 24.40625 26.886719 24.1875 26.902344 23.972656 L 26.953125 23.128906 L 26.984375 22.6875 C 26.992188 22.515625 27.007812 22.378906 27.015625 22.285156 L 27.179688 22.265625 L 27.414062 22.433594 C 27.46875 22.539062 27.488281 22.691406 27.472656 22.902344 C 27.460938 23.097656 27.421875 23.242188 27.363281 23.339844 L 27.144531 23.484375 L 27.097656 23.46875 L 27.046875 23.445312 L 27.015625 23.488281 L 27.050781 23.652344 L 27.132812 23.679688 L 27.214844 23.691406 L 27.539062 23.574219 C 27.640625 23.488281 27.722656 23.371094 27.773438 23.230469 C 27.832031 23.082031 27.863281 22.929688 27.871094 22.765625 C 27.875 22.601562 27.867188 22.449219 27.824219 22.347656 L 27.664062 22.121094 L 27.390625 22.039062 L 26.800781 22.023438 Z M 22.96875 21.992188 C 22.847656 21.992188 22.738281 22.007812 22.632812 22.046875 L 22.34375 22.21875 C 22.25 22.300781 22.167969 22.410156 22.089844 22.539062 C 22.019531 22.667969 21.960938 22.820312 21.921875 22.996094 C 21.878906 23.167969 21.859375 23.375 21.859375 23.609375 C 21.859375 23.886719 21.890625 24.140625 21.953125 24.371094 C 21.992188 24.515625 22.050781 24.652344 22.125 24.78125 C 22.207031 24.90625 22.292969 25.007812 22.402344 25.09375 C 22.554688 25.203125 22.730469 25.265625 22.929688 25.265625 C 23.050781 25.265625 23.171875 25.242188 23.296875 25.203125 C 23.414062 25.152344 23.558594 25.085938 23.726562 24.984375 L 23.714844 24.628906 C 23.714844 24.558594 23.714844 24.433594 23.722656 24.261719 L 23.730469 24.140625 L 23.835938 24.0625 L 23.835938 23.921875 L 23.433594 23.925781 L 23.042969 23.921875 L 23.042969 24.101562 C 23.175781 24.113281 23.261719 24.125 23.292969 24.140625 L 23.328125 24.183594 C 23.335938 24.207031 23.339844 24.292969 23.339844 24.4375 L 23.335938 24.640625 C 23.332031 24.761719 23.332031 24.839844 23.328125 24.875 L 23.167969 24.964844 L 22.992188 25 C 22.785156 25 22.617188 24.871094 22.476562 24.609375 C 22.339844 24.351562 22.265625 24 22.265625 23.554688 C 22.265625 23.152344 22.335938 22.835938 22.46875 22.601562 C 22.601562 22.367188 22.777344 22.25 22.996094 22.25 L 23.25 22.308594 L 23.449219 22.457031 L 23.519531 22.570312 L 23.53125 22.742188 L 23.539062 22.957031 L 23.644531 22.957031 C 23.664062 22.621094 23.683594 22.386719 23.707031 22.253906 L 23.695312 22.214844 C 23.621094 22.160156 23.519531 22.113281 23.386719 22.058594 C 23.261719 22.011719 23.121094 21.992188 22.96875 21.992188 Z M 24.910156 22.035156 L 24.792969 22.539062 L 24.445312 23.984375 C 24.378906 24.257812 24.332031 24.4375 24.316406 24.53125 C 24.261719 24.730469 24.230469 24.84375 24.21875 24.875 L 24.191406 24.945312 L 24.152344 24.96875 L 24.03125 25 L 24.03125 25.183594 L 24.332031 25.171875 L 24.636719 25.183594 L 24.636719 25 L 24.449219 24.957031 L 24.429688 24.882812 C 24.429688 24.828125 24.449219 24.699219 24.492188 24.496094 L 24.550781 24.21875 L 25.230469 24.21875 L 25.351562 24.71875 L 25.375 24.898438 L 25.355469 24.964844 L 25.175781 25 L 25.175781 25.183594 L 25.640625 25.171875 L 26.007812 25.183594 L 26.007812 25 L 25.953125 24.984375 L 25.871094 24.964844 L 25.84375 24.945312 L 25.824219 24.882812 L 25.765625 24.679688 L 25.683594 24.375 L 25.097656 22.035156 Z M 28.164062 22.101562 L 28.132812 22.292969 L 28.316406 22.359375 L 28.335938 22.398438 C 28.335938 22.433594 28.328125 22.535156 28.304688 22.699219 C 28.273438 22.957031 28.253906 23.097656 28.242188 23.132812 L 28.097656 24.132812 C 28.082031 24.25 28.050781 24.433594 28.007812 24.6875 C 27.980469 24.824219 27.964844 24.925781 27.949219 24.988281 L 27.800781 25.097656 L 27.78125 25.214844 C 28.054688 25.246094 28.203125 25.265625 28.222656 25.265625 C 28.304688 25.277344 28.445312 25.304688 28.65625 25.339844 L 28.867188 25.375 L 29.101562 25.398438 L 29.125 25.367188 C 29.152344 25.179688 29.195312 24.9375 29.261719 24.644531 L 29.148438 24.628906 C 29.105469 24.828125 29.070312 24.960938 29.039062 25.03125 L 29.023438 25.066406 L 28.871094 25.09375 L 28.601562 25.066406 L 28.351562 25.019531 L 28.390625 24.742188 L 28.527344 23.808594 L 28.738281 23.820312 L 28.964844 23.878906 L 29.015625 23.945312 C 29.023438 23.984375 29.015625 24.09375 28.988281 24.265625 L 29.101562 24.28125 L 29.167969 23.796875 L 29.242188 23.308594 L 29.136719 23.292969 C 29.117188 23.425781 29.09375 23.515625 29.082031 23.574219 L 29.050781 23.617188 L 28.964844 23.617188 C 28.839844 23.609375 28.769531 23.59375 28.75 23.589844 L 28.5625 23.558594 L 28.628906 23.105469 C 28.667969 22.84375 28.699219 22.632812 28.742188 22.46875 L 28.980469 22.488281 L 29.234375 22.550781 L 29.335938 22.601562 L 29.335938 22.648438 C 29.335938 22.6875 29.332031 22.792969 29.308594 22.96875 L 29.410156 22.988281 C 29.441406 22.796875 29.464844 22.6875 29.472656 22.667969 L 29.539062 22.351562 L 29.535156 22.320312 L 29.496094 22.300781 L 29.304688 22.265625 L 29.035156 22.238281 C 28.886719 22.222656 28.753906 22.203125 28.636719 22.183594 L 28.460938 22.160156 Z M 21 22.300781 L 20.816406 22.320312 L 20.738281 22.835938 L 20.507812 24.300781 C 20.46875 24.582031 20.433594 24.765625 20.417969 24.859375 C 20.390625 25.054688 20.363281 25.179688 20.359375 25.203125 L 20.335938 25.277344 L 20.304688 25.3125 L 20.175781 25.339844 L 20.191406 25.527344 L 20.492188 25.492188 L 20.800781 25.480469 L 20.785156 25.292969 L 20.59375 25.265625 L 20.566406 25.195312 C 20.558594 25.144531 20.570312 25.015625 20.601562 24.808594 L 20.636719 24.53125 L 21.316406 24.476562 L 21.46875 24.960938 L 21.515625 25.140625 L 21.496094 25.207031 L 21.320312 25.253906 L 21.335938 25.4375 L 21.796875 25.386719 L 22.164062 25.367188 L 22.152344 25.183594 L 22.089844 25.179688 L 22.015625 25.171875 L 21.980469 25.144531 L 21.953125 25.09375 L 21.882812 24.886719 L 21.777344 24.589844 Z M 5.027344 22.707031 C 4.898438 22.699219 4.785156 22.71875 4.679688 22.75 L 4.421875 22.867188 L 4.238281 23.070312 C 4.183594 23.160156 4.136719 23.273438 4.097656 23.414062 C 4.085938 23.46875 4.058594 23.585938 4.019531 23.769531 C 3.984375 23.949219 3.957031 24.089844 3.9375 24.191406 C 3.898438 24.320312 3.855469 24.421875 3.8125 24.492188 L 3.636719 24.640625 L 3.351562 24.695312 C 3.195312 24.691406 3.050781 24.625 2.933594 24.488281 C 2.820312 24.355469 2.761719 24.167969 2.769531 23.933594 C 2.773438 23.765625 2.804688 23.617188 2.871094 23.484375 C 2.929688 23.347656 3 23.257812 3.082031 23.203125 C 3.167969 23.191406 3.3125 23.1875 3.515625 23.1875 L 3.519531 22.96875 C 3.339844 22.960938 3.195312 22.945312 3.089844 22.929688 L 2.753906 22.867188 L 2.691406 22.890625 C 2.621094 23.015625 2.574219 23.167969 2.53125 23.339844 C 2.496094 23.515625 2.476562 23.691406 2.46875 23.878906 C 2.464844 24.054688 2.480469 24.234375 2.511719 24.40625 C 2.550781 24.574219 2.609375 24.730469 2.703125 24.867188 C 2.789062 25.003906 2.914062 25.113281 3.082031 25.203125 C 3.242188 25.289062 3.421875 25.332031 3.617188 25.339844 C 3.757812 25.339844 3.890625 25.324219 4.015625 25.28125 C 4.136719 25.238281 4.238281 25.175781 4.332031 25.085938 C 4.417969 24.992188 4.488281 24.875 4.539062 24.722656 C 4.574219 24.625 4.621094 24.414062 4.695312 24.101562 C 4.753906 23.878906 4.808594 23.722656 4.855469 23.640625 L 5.050781 23.449219 L 5.332031 23.390625 C 5.46875 23.402344 5.582031 23.429688 5.683594 23.488281 C 5.789062 23.554688 5.867188 23.652344 5.917969 23.785156 C 5.976562 23.914062 6.003906 24.0625 6 24.230469 C 5.992188 24.421875 5.953125 24.597656 5.863281 24.753906 C 5.777344 24.914062 5.679688 25.03125 5.566406 25.09375 C 5.378906 25.109375 5.222656 25.117188 5.09375 25.109375 L 5.089844 25.328125 C 5.5 25.339844 5.800781 25.378906 6.003906 25.4375 C 6.105469 25.238281 6.175781 25.054688 6.226562 24.886719 C 6.265625 24.71875 6.292969 24.527344 6.292969 24.308594 C 6.304688 24.015625 6.269531 23.761719 6.191406 23.550781 C 6.140625 23.417969 6.066406 23.285156 5.960938 23.160156 C 5.855469 23.03125 5.742188 22.933594 5.617188 22.855469 C 5.449219 22.765625 5.25 22.714844 5.027344 22.707031 Z M 8.191406 22.714844 C 10.574219 24.503906 9.726562 27.183594 9.726562 27.183594 C 9.726562 27.183594 9.023438 24.378906 8.71875 23.933594 C 8.71875 23.933594 8.582031 23.753906 8.457031 23.820312 C 8.40625 23.847656 8.363281 23.90625 8.324219 24.035156 C 8.324219 24.035156 8.75 25.253906 9.042969 26.226562 C 9.171875 26.675781 9.277344 27.074219 9.300781 27.273438 C 7.359375 25.605469 8.191406 22.714844 8.191406 22.714844 Z M 41.90625 22.714844 C 41.90625 22.714844 42.730469 25.605469 40.800781 27.273438 C 40.816406 27.074219 40.921875 26.675781 41.054688 26.226562 L 41.058594 26.210938 C 41.347656 25.242188 41.769531 24.035156 41.769531 24.035156 C 41.734375 23.90625 41.6875 23.847656 41.636719 23.820312 C 41.515625 23.753906 41.375 23.933594 41.375 23.933594 C 41.066406 24.378906 40.363281 27.183594 40.363281 27.183594 C 40.363281 27.183594 39.519531 24.503906 41.90625 22.714844 Z M 24.886719 22.8125 L 25.167969 23.972656 L 24.613281 23.972656 Z M 46.378906 22.890625 C 46.332031 22.886719 46.28125 22.886719 46.234375 22.890625 C 46.097656 22.894531 45.964844 22.917969 45.84375 22.96875 C 45.722656 23.023438 45.621094 23.097656 45.539062 23.191406 C 45.457031 23.277344 45.398438 23.410156 45.359375 23.5625 C 45.332031 23.660156 45.292969 23.875 45.234375 24.191406 C 45.195312 24.414062 45.152344 24.566406 45.105469 24.664062 L 44.921875 24.863281 L 44.644531 24.933594 C 44.511719 24.9375 44.390625 24.910156 44.285156 24.859375 C 44.179688 24.808594 44.097656 24.710938 44.03125 24.582031 C 43.96875 24.453125 43.933594 24.304688 43.925781 24.144531 C 43.917969 23.949219 43.957031 23.777344 44.03125 23.609375 C 44.109375 23.445312 44.203125 23.324219 44.308594 23.253906 C 44.492188 23.226562 44.648438 23.207031 44.773438 23.207031 L 44.765625 22.988281 C 44.355469 23 44.050781 22.988281 43.851562 22.941406 C 43.757812 23.140625 43.695312 23.332031 43.660156 23.5 C 43.632812 23.667969 43.617188 23.859375 43.625 24.082031 C 43.636719 24.375 43.691406 24.625 43.777344 24.828125 C 43.835938 24.960938 43.917969 25.085938 44.03125 25.203125 C 44.144531 25.324219 44.261719 25.417969 44.394531 25.488281 C 44.566406 25.574219 44.765625 25.609375 44.992188 25.605469 C 45.121094 25.597656 45.234375 25.574219 45.335938 25.539062 L 45.585938 25.402344 L 45.757812 25.183594 C 45.808594 25.097656 45.84375 24.984375 45.878906 24.839844 C 45.886719 24.78125 45.90625 24.664062 45.925781 24.476562 C 45.953125 24.296875 45.976562 24.15625 45.992188 24.054688 C 46.023438 23.921875 46.058594 23.8125 46.097656 23.75 L 46.261719 23.582031 L 46.542969 23.511719 C 46.703125 23.507812 46.84375 23.566406 46.972656 23.691406 C 47.097656 23.820312 47.164062 24.003906 47.175781 24.238281 C 47.179688 24.40625 47.152344 24.558594 47.097656 24.695312 C 47.042969 24.828125 46.980469 24.929688 46.90625 24.988281 C 46.820312 25.003906 46.675781 25.019531 46.472656 25.027344 L 46.480469 25.25 C 46.660156 25.25 46.808594 25.253906 46.914062 25.253906 L 47.253906 25.296875 L 47.316406 25.277344 C 47.375 25.144531 47.417969 24.992188 47.441406 24.820312 C 47.46875 24.636719 47.480469 24.464844 47.472656 24.277344 C 47.464844 24.09375 47.4375 23.921875 47.394531 23.75 C 47.351562 23.582031 47.273438 23.433594 47.179688 23.304688 C 47.082031 23.167969 46.949219 23.066406 46.785156 22.992188 C 46.65625 22.933594 46.519531 22.898438 46.378906 22.890625 Z M 20.855469 23.097656 L 21.226562 24.230469 L 20.960938 24.261719 L 20.675781 24.277344 Z M 12.25 26.617188 C 12.367188 26.621094 12.492188 26.628906 12.625 26.648438 C 12.625 26.648438 10.953125 27.152344 10.140625 27.78125 C 10.140625 27.78125 10.476562 26.546875 12.25 26.617188 Z M 37.84375 26.617188 C 39.621094 26.546875 39.953125 27.78125 39.953125 27.78125 C 39.144531 27.152344 37.46875 26.648438 37.46875 26.648438 C 37.597656 26.628906 37.722656 26.621094 37.84375 26.617188 Z M 7.644531 26.660156 C 9.207031 27.222656 9.585938 29.078125 9.585938 29.078125 L 9.007812 28.753906 C 8.09375 27.636719 7.644531 26.660156 7.644531 26.660156 Z M 42.457031 26.660156 C 42.457031 26.660156 42.003906 27.636719 41.089844 28.753906 L 40.507812 29.078125 C 40.507812 29.078125 40.890625 27.222656 42.457031 26.660156 Z M 12.910156 27.023438 C 12.910156 27.023438 11.921875 27.882812 10.683594 27.945312 C 10.683594 27.945312 11.835938 27.257812 12.910156 27.023438 Z M 37.179688 27.023438 C 38.261719 27.257812 39.410156 27.945312 39.410156 27.945312 C 38.171875 27.882812 37.179688 27.023438 37.179688 27.023438 Z M 7.394531 27.074219 C 7.785156 27.945312 8.363281 28.539062 8.363281 28.539062 L 8.179688 28.539062 C 7.40625 27.796875 7.394531 27.074219 7.394531 27.074219 Z M 42.707031 27.074219 C 42.707031 27.074219 42.6875 27.796875 41.914062 28.539062 L 41.734375 28.539062 C 41.734375 28.539062 42.316406 27.945312 42.707031 27.074219 Z M 4.003906 27.355469 C 3.457031 27.355469 3.019531 27.792969 3.019531 28.339844 C 3.019531 28.882812 3.457031 29.320312 4.003906 29.320312 C 4.542969 29.320312 4.984375 28.882812 4.984375 28.339844 C 4.984375 27.792969 4.542969 27.355469 4.003906 27.355469 Z M 46.070312 27.492188 C 45.527344 27.492188 45.089844 27.9375 45.089844 28.476562 C 45.089844 29.019531 45.527344 29.460938 46.070312 29.460938 C 46.621094 29.460938 47.054688 29.019531 47.054688 28.476562 C 47.054688 27.9375 46.621094 27.492188 46.070312 27.492188 Z M 12.683594 27.691406 C 12.683594 27.691406 12.769531 29.546875 11.347656 30.257812 C 11.347656 30.257812 11.871094 29.179688 12.085938 28.054688 Z M 37.417969 27.691406 L 38.011719 28.054688 C 38.230469 29.179688 38.75 30.257812 38.75 30.257812 C 37.328125 29.546875 37.417969 27.691406 37.417969 27.691406 Z M 23.984375 27.828125 L 23.984375 32.144531 C 25.207031 32.753906 26.078125 32.144531 26.078125 32.144531 L 26.078125 27.828125 C 24.769531 28.660156 23.984375 27.828125 23.984375 27.828125 Z M 11.59375 28.195312 C 11.59375 28.195312 11.253906 29.671875 10.953125 30.046875 C 10.953125 30.046875 10.828125 28.984375 11.027344 28.339844 Z M 38.496094 28.195312 L 39.070312 28.339844 C 39.269531 28.984375 39.144531 30.046875 39.144531 30.046875 C 38.835938 29.671875 38.496094 28.195312 38.496094 28.195312 Z M 10.539062 28.445312 C 10.539062 28.445312 10.429688 29.558594 10.539062 29.992188 L 10.105469 29.488281 C 10.105469 29.488281 9.929688 28.644531 9.835938 28.464844 Z M 39.558594 28.445312 L 40.261719 28.464844 C 40.167969 28.644531 39.988281 29.488281 39.988281 29.488281 L 39.558594 29.992188 C 39.667969 29.558594 39.558594 28.445312 39.558594 28.445312 Z M 7.515625 28.898438 C 9.542969 28.886719 10.234375 30.371094 10.234375 30.371094 C 9.042969 29.671875 7.03125 29 7.03125 29 C 6.847656 28.953125 6.726562 29.199219 6.726562 29.199219 L 6.5625 29 C 6.910156 28.929688 7.226562 28.898438 7.515625 28.898438 Z M 42.578125 28.898438 C 42.867188 28.898438 43.183594 28.929688 43.527344 29 L 43.375 29.199219 C 43.375 29.199219 43.246094 28.953125 43.066406 29 C 43.066406 29 41.054688 29.671875 39.859375 30.371094 C 39.859375 30.371094 40.550781 28.886719 42.578125 28.898438 Z M 6.921875 29.433594 C 8.414062 29.832031 10.175781 30.851562 10.175781 30.851562 C 8.214844 31.285156 6.921875 29.433594 6.921875 29.433594 Z M 43.171875 29.433594 C 43.171875 29.433594 41.882812 31.285156 39.917969 30.851562 C 39.917969 30.851562 41.683594 29.832031 43.171875 29.433594 Z M 44.21875 30.46875 L 44.007812 31.03125 C 43.988281 31.078125 43.945312 31.183594 43.871094 31.339844 L 44.082031 31.546875 C 44.136719 31.601562 44.28125 31.753906 44.511719 32.011719 L 44.929688 32.460938 C 45.039062 32.582031 45.191406 32.75 45.386719 32.976562 L 43.921875 33.078125 L 43.589844 33.09375 L 43.15625 33.113281 C 43.113281 33.242188 43.066406 33.375 43.011719 33.503906 C 42.976562 33.601562 42.898438 33.769531 42.789062 34.027344 L 42.949219 34.089844 L 43.0625 33.878906 L 43.109375 33.824219 L 43.15625 33.820312 C 43.203125 33.820312 43.316406 33.859375 43.515625 33.933594 C 43.707031 34.007812 43.933594 34.097656 44.183594 34.199219 C 44.464844 34.308594 44.667969 34.390625 44.78125 34.445312 C 45.015625 34.542969 45.164062 34.617188 45.234375 34.652344 L 45.296875 34.703125 L 45.308594 34.746094 C 45.308594 34.777344 45.289062 34.871094 45.238281 35.011719 L 45.398438 35.078125 C 45.433594 34.957031 45.488281 34.808594 45.566406 34.617188 C 45.625 34.472656 45.6875 34.332031 45.75 34.191406 L 45.59375 34.125 C 45.53125 34.253906 45.496094 34.328125 45.476562 34.347656 L 45.421875 34.390625 L 45.351562 34.390625 C 45.320312 34.386719 45.203125 34.339844 44.988281 34.257812 C 44.777344 34.183594 44.59375 34.113281 44.441406 34.046875 L 43.523438 33.683594 L 44.722656 33.59375 C 44.902344 33.578125 45.183594 33.566406 45.550781 33.546875 C 45.765625 33.535156 45.933594 33.527344 46.058594 33.527344 L 46.109375 33.398438 L 45.847656 33.128906 C 45.667969 32.9375 45.53125 32.789062 45.441406 32.691406 L 45.09375 32.3125 L 44.390625 31.527344 L 45.75 32.074219 C 46.007812 32.175781 46.160156 32.242188 46.203125 32.273438 L 46.273438 32.355469 C 46.277344 32.382812 46.25 32.476562 46.191406 32.628906 L 46.351562 32.691406 L 46.578125 32.105469 L 46.824219 31.523438 L 46.667969 31.457031 C 46.601562 31.589844 46.566406 31.664062 46.554688 31.679688 L 46.511719 31.710938 L 46.457031 31.714844 C 46.421875 31.707031 46.320312 31.679688 46.15625 31.625 C 46.132812 31.617188 46.039062 31.578125 45.878906 31.519531 L 45.226562 31.253906 L 44.703125 31.035156 L 44.46875 30.933594 L 44.3125 30.820312 C 44.296875 30.773438 44.3125 30.691406 44.367188 30.558594 L 44.375 30.535156 Z M 4.917969 30.710938 C 4.730469 30.707031 4.539062 30.746094 4.335938 30.820312 C 4.109375 30.917969 3.910156 31.046875 3.75 31.222656 C 3.640625 31.335938 3.558594 31.46875 3.488281 31.625 C 3.421875 31.785156 3.386719 31.957031 3.386719 32.144531 C 3.382812 32.378906 3.4375 32.636719 3.539062 32.898438 C 3.617188 33.089844 3.699219 33.242188 3.777344 33.347656 C 3.859375 33.464844 3.972656 33.578125 4.117188 33.703125 L 4.34375 33.71875 L 4.367188 33.648438 C 4.246094 33.546875 4.144531 33.441406 4.066406 33.339844 C 3.992188 33.234375 3.933594 33.117188 3.878906 32.996094 C 3.800781 32.796875 3.765625 32.617188 3.765625 32.453125 C 3.773438 32.339844 3.804688 32.207031 3.867188 32.066406 C 3.921875 31.933594 4.019531 31.800781 4.144531 31.683594 C 4.269531 31.5625 4.433594 31.464844 4.640625 31.378906 C 4.972656 31.242188 5.265625 31.234375 5.523438 31.332031 C 5.785156 31.433594 5.972656 31.628906 6.09375 31.929688 C 6.15625 32.089844 6.191406 32.238281 6.183594 32.355469 C 6.183594 32.480469 6.15625 32.597656 6.101562 32.71875 C 6.023438 32.765625 5.917969 32.816406 5.78125 32.871094 L 5.835938 33.015625 C 5.960938 32.976562 6.097656 32.9375 6.246094 32.894531 L 6.492188 32.855469 L 6.511719 32.832031 C 6.503906 32.628906 6.484375 32.453125 6.453125 32.3125 C 6.425781 32.164062 6.375 32.011719 6.308594 31.835938 C 6.105469 31.339844 5.828125 31.011719 5.472656 30.84375 C 5.292969 30.757812 5.109375 30.714844 4.917969 30.710938 Z M 11.1875 31.109375 C 11.1875 31.109375 12.410156 31.488281 12.535156 34.617188 L 12.355469 34.566406 C 12.355469 34.566406 11.582031 33.269531 11.511719 32.316406 C 11.511719 32.316406 11.328125 31.269531 11.1875 31.109375 Z M 38.90625 31.109375 C 38.765625 31.269531 38.589844 32.316406 38.589844 32.316406 C 38.515625 33.269531 37.738281 34.566406 37.738281 34.566406 L 37.558594 34.617188 C 37.683594 31.488281 38.90625 31.109375 38.90625 31.109375 Z M 10.769531 31.199219 C 10.769531 31.199219 11.203125 32.441406 11.152344 32.746094 C 11.152344 32.746094 11.5625 34.152344 11.761719 34.332031 L 11.277344 34.253906 C 11.277344 34.253906 10.449219 33.015625 10.769531 31.199219 Z M 39.324219 31.199219 C 39.648438 33.015625 38.820312 34.253906 38.820312 34.253906 L 38.332031 34.332031 C 38.527344 34.152344 38.945312 32.746094 38.945312 32.746094 C 38.890625 32.441406 39.324219 31.199219 39.324219 31.199219 Z M 10.320312 31.234375 C 10.320312 31.234375 10.234375 31.988281 10.308594 32.425781 L 9.617188 31.957031 L 9.300781 31.324219 C 9.300781 31.324219 10.070312 31.378906 10.320312 31.234375 Z M 13.832031 31.234375 C 13.417969 31.488281 12.570312 32.238281 12.570312 32.238281 L 12.480469 31.96875 C 12.988281 31.199219 13.832031 31.234375 13.832031 31.234375 Z M 36.261719 31.234375 C 36.261719 31.234375 37.109375 31.199219 37.613281 31.96875 L 37.523438 32.238281 C 37.523438 32.238281 36.675781 31.488281 36.261719 31.234375 Z M 39.773438 31.234375 C 40.023438 31.378906 40.800781 31.324219 40.800781 31.324219 L 40.476562 31.957031 L 39.792969 32.425781 C 39.859375 31.988281 39.773438 31.234375 39.773438 31.234375 Z M 14.296875 31.433594 C 14.101562 32.496094 12.824219 33.105469 12.824219 33.105469 L 12.753906 32.671875 C 13.132812 32.1875 14.296875 31.433594 14.296875 31.433594 Z M 35.796875 31.433594 C 35.796875 31.433594 36.96875 32.1875 37.34375 32.671875 L 37.269531 33.105469 C 37.269531 33.105469 35.992188 32.496094 35.796875 31.433594 Z M 8.515625 32.257812 C 10.402344 32.273438 10.613281 33.8125 10.613281 33.8125 C 9.476562 32.660156 7.808594 32.355469 7.808594 32.355469 C 7.394531 32.355469 7.644531 32.691406 7.644531 32.691406 C 9.441406 33.195312 10.125 33.992188 10.125 33.992188 C 8.757812 33.84375 7.28125 32.425781 7.28125 32.425781 C 7.757812 32.304688 8.164062 32.253906 8.515625 32.257812 Z M 41.578125 32.257812 C 41.929688 32.253906 42.335938 32.304688 42.8125 32.425781 C 42.8125 32.425781 41.339844 33.84375 39.96875 33.992188 C 39.96875 33.992188 40.65625 33.195312 42.457031 32.691406 C 42.457031 32.691406 42.707031 32.355469 42.289062 32.355469 C 42.289062 32.355469 40.617188 32.660156 39.488281 33.8125 C 39.488281 33.8125 39.691406 32.273438 41.578125 32.257812 Z M 6.683594 32.957031 L 6.539062 33.039062 C 6.609375 33.1875 6.644531 33.28125 6.648438 33.324219 L 6.628906 33.363281 C 6.609375 33.390625 6.519531 33.449219 6.371094 33.527344 L 5.996094 33.738281 L 5.332031 34.097656 L 4.800781 34.359375 L 4.582031 34.449219 L 4.523438 34.464844 L 4.488281 34.445312 C 4.464844 34.421875 4.414062 34.347656 4.335938 34.210938 L 4.179688 34.296875 C 4.269531 34.449219 4.367188 34.625 4.464844 34.808594 C 4.574219 35.015625 4.683594 35.222656 4.785156 35.433594 L 4.945312 35.351562 L 4.847656 35.136719 L 4.835938 35.078125 L 4.851562 35.039062 L 4.972656 34.949219 C 5.003906 34.929688 5.140625 34.851562 5.382812 34.71875 C 5.582031 34.597656 5.773438 34.496094 5.953125 34.410156 C 6.066406 34.34375 6.292969 34.226562 6.636719 34.050781 C 6.789062 33.980469 6.886719 33.933594 6.933594 33.910156 L 7.035156 34.070312 C 7.105469 34.199219 7.140625 34.296875 7.152344 34.355469 L 7.105469 34.628906 L 6.875 34.859375 L 6.539062 34.9375 L 6.253906 34.851562 C 6.179688 34.796875 6.105469 34.695312 6.035156 34.554688 L 5.96875 34.5625 L 5.90625 34.738281 C 5.851562 34.871094 5.753906 35.042969 5.628906 35.246094 L 5.203125 35.964844 L 5.125 36.0625 L 5.28125 36.339844 C 5.324219 36.429688 5.394531 36.5625 5.484375 36.746094 L 5.636719 36.667969 L 5.59375 36.546875 L 5.605469 36.464844 C 5.613281 36.4375 5.65625 36.339844 5.730469 36.1875 C 5.734375 36.1875 5.773438 36.105469 5.84375 35.972656 L 6.117188 35.472656 L 6.132812 35.433594 L 6.308594 35.121094 C 6.484375 35.273438 6.648438 35.355469 6.820312 35.386719 C 6.980469 35.410156 7.136719 35.386719 7.28125 35.308594 C 7.402344 35.246094 7.488281 35.160156 7.542969 35.042969 L 7.578125 34.71875 C 7.554688 34.609375 7.492188 34.460938 7.394531 34.277344 C 7.34375 34.179688 7.277344 34.058594 7.191406 33.910156 C 7.136719 33.824219 7.082031 33.71875 7.011719 33.59375 C 6.933594 33.445312 6.875 33.332031 6.832031 33.25 C 6.75 33.085938 6.703125 32.984375 6.683594 32.957031 Z M 21.722656 33.269531 C 21.371094 33.398438 21.109375 33.492188 20.945312 33.550781 C 20.777344 33.601562 20.550781 33.675781 20.269531 33.753906 L 20.265625 33.769531 L 20.296875 33.917969 L 20.316406 34.070312 L 20.34375 34.085938 C 20.429688 34.035156 20.625 33.949219 20.929688 33.816406 L 21.035156 33.777344 L 21.070312 33.800781 L 21.085938 33.894531 L 21.089844 34.097656 C 21.097656 34.320312 21.097656 34.535156 21.097656 34.730469 L 21.097656 35.296875 C 21.097656 35.71875 21.089844 35.992188 21.070312 36.117188 L 21.023438 36.246094 L 20.917969 36.28125 L 20.46875 36.332031 L 20.46875 36.527344 C 20.988281 36.519531 21.324219 36.511719 21.46875 36.511719 C 21.679688 36.511719 21.960938 36.519531 22.304688 36.527344 L 22.304688 36.332031 L 22.152344 36.320312 C 21.96875 36.3125 21.855469 36.292969 21.820312 36.277344 L 21.769531 36.230469 C 21.753906 36.191406 21.746094 36.082031 21.746094 35.875 C 21.730469 35.746094 21.726562 35.503906 21.726562 35.164062 L 21.726562 34.8125 C 21.734375 34.246094 21.746094 33.898438 21.746094 33.765625 C 21.746094 33.730469 21.753906 33.648438 21.761719 33.527344 C 21.769531 33.398438 21.777344 33.328125 21.777344 33.300781 Z M 26.957031 33.277344 C 26.925781 33.277344 26.828125 33.292969 26.648438 33.335938 L 26.367188 33.390625 C 26.300781 33.476562 26.191406 33.636719 26.039062 33.878906 C 25.886719 34.121094 25.703125 34.453125 25.484375 34.878906 C 25.324219 35.1875 25.222656 35.398438 25.183594 35.519531 L 25.210938 35.71875 C 25.496094 35.707031 25.777344 35.707031 26.0625 35.707031 L 26.378906 35.707031 C 26.367188 35.953125 26.367188 36.09375 26.363281 36.117188 L 26.320312 36.261719 L 26.246094 36.292969 C 26.207031 36.308594 26.0625 36.316406 25.808594 36.332031 L 25.808594 36.527344 L 26.625 36.511719 L 27.230469 36.523438 L 27.417969 36.527344 L 27.417969 36.332031 L 27.109375 36.304688 L 27.015625 36.261719 L 26.972656 36.1875 C 26.964844 36.101562 26.960938 35.945312 26.960938 35.707031 L 27.402344 35.707031 L 27.386719 35.535156 L 27.402344 35.324219 L 27.386719 35.296875 L 27.050781 35.308594 L 26.960938 35.308594 L 26.960938 34.777344 C 26.964844 34.277344 26.96875 33.957031 26.972656 33.8125 C 26.984375 33.59375 26.988281 33.421875 27 33.316406 Z M 23.824219 33.328125 C 23.519531 33.328125 23.269531 33.429688 23.074219 33.640625 C 22.871094 33.855469 22.773438 34.128906 22.773438 34.484375 C 22.773438 34.777344 22.847656 35 22.984375 35.160156 C 23.121094 35.308594 23.292969 35.390625 23.496094 35.390625 L 23.835938 35.335938 L 23.917969 35.28125 C 23.972656 35.238281 24.070312 35.148438 24.226562 35.011719 C 24.199219 35.253906 24.175781 35.433594 24.140625 35.554688 C 24.089844 35.707031 24.019531 35.851562 23.941406 35.976562 C 23.851562 36.101562 23.738281 36.199219 23.605469 36.277344 C 23.46875 36.351562 23.324219 36.394531 23.167969 36.394531 L 22.996094 36.367188 L 22.941406 36.457031 L 23.121094 36.605469 C 23.355469 36.605469 23.566406 36.566406 23.769531 36.476562 C 23.964844 36.394531 24.144531 36.273438 24.316406 36.105469 C 24.480469 35.945312 24.613281 35.746094 24.710938 35.515625 C 24.808594 35.28125 24.859375 35 24.859375 34.667969 C 24.859375 34.378906 24.820312 34.144531 24.746094 33.960938 C 24.675781 33.769531 24.5625 33.617188 24.40625 33.503906 C 24.257812 33.386719 24.0625 33.328125 23.824219 33.328125 Z M 28.933594 33.328125 C 28.804688 33.328125 28.683594 33.347656 28.570312 33.386719 L 28.277344 33.566406 C 28.191406 33.640625 28.113281 33.742188 28.046875 33.867188 C 27.980469 33.992188 27.929688 34.125 27.910156 34.277344 C 27.871094 34.496094 27.851562 34.746094 27.851562 35.023438 C 27.851562 35.273438 27.867188 35.496094 27.894531 35.699219 C 27.929688 35.898438 27.980469 36.070312 28.070312 36.199219 C 28.15625 36.332031 28.265625 36.4375 28.394531 36.503906 C 28.535156 36.574219 28.6875 36.605469 28.871094 36.605469 C 29.023438 36.605469 29.148438 36.585938 29.253906 36.539062 L 29.546875 36.359375 C 29.628906 36.277344 29.710938 36.167969 29.773438 36.027344 C 29.84375 35.890625 29.894531 35.71875 29.917969 35.527344 C 29.941406 35.332031 29.960938 35.101562 29.960938 34.839844 C 29.960938 34.472656 29.925781 34.183594 29.863281 33.980469 C 29.796875 33.769531 29.691406 33.609375 29.542969 33.492188 C 29.394531 33.386719 29.199219 33.328125 28.933594 33.328125 Z M 23.769531 33.582031 C 23.921875 33.582031 24.042969 33.65625 24.117188 33.804688 C 24.195312 33.949219 24.234375 34.15625 24.234375 34.421875 C 24.234375 34.558594 24.226562 34.65625 24.191406 34.734375 L 24.042969 34.902344 L 23.828125 34.96875 L 23.589844 34.882812 L 23.414062 34.65625 C 23.371094 34.550781 23.351562 34.410156 23.351562 34.234375 C 23.351562 34 23.386719 33.832031 23.46875 33.734375 C 23.546875 33.636719 23.644531 33.582031 23.769531 33.582031 Z M 28.875 33.582031 L 29.070312 33.648438 L 29.214844 33.835938 C 29.253906 33.925781 29.28125 34.058594 29.304688 34.234375 C 29.34375 34.558594 29.367188 34.882812 29.367188 35.210938 C 29.367188 35.71875 29.320312 36.03125 29.242188 36.167969 C 29.15625 36.292969 29.050781 36.359375 28.925781 36.359375 L 28.652344 36.226562 C 28.574219 36.128906 28.515625 35.945312 28.480469 35.660156 C 28.445312 35.375 28.425781 35.046875 28.425781 34.695312 C 28.425781 34.347656 28.449219 34.089844 28.5 33.917969 C 28.535156 33.800781 28.589844 33.714844 28.652344 33.660156 Z M 26.40625 33.710938 L 26.394531 34.144531 L 26.386719 34.449219 L 26.378906 35.308594 L 25.527344 35.308594 C 25.699219 34.941406 25.832031 34.671875 25.929688 34.5 C 26.027344 34.328125 26.183594 34.066406 26.40625 33.710938 Z M 15 34.027344 C 16.730469 35.410156 16.851562 37.691406 16.851562 37.691406 C 16.152344 37.382812 15.253906 34.550781 15.253906 34.550781 C 15.21875 34.277344 14.910156 34.363281 14.910156 34.363281 C 14.929688 34.167969 15 34.027344 15 34.027344 Z M 35.097656 34.027344 C 35.097656 34.027344 35.164062 34.167969 35.183594 34.363281 C 35.183594 34.363281 34.878906 34.277344 34.84375 34.550781 C 34.84375 34.550781 33.945312 37.382812 33.242188 37.691406 C 33.242188 37.691406 33.367188 35.410156 35.097656 34.027344 Z M 42.671875 34.0625 L 42.441406 34.449219 L 42.414062 34.496094 C 42.390625 34.539062 42.3125 34.65625 42.171875 34.863281 L 42.316406 34.949219 C 42.398438 34.824219 42.46875 34.746094 42.511719 34.726562 L 42.574219 34.710938 C 42.609375 34.71875 42.703125 34.765625 42.851562 34.851562 C 42.917969 34.890625 43.101562 35.003906 43.40625 35.199219 L 43.757812 35.414062 C 44 35.566406 44.152344 35.691406 44.21875 35.789062 C 44.28125 35.882812 44.308594 35.992188 44.308594 36.117188 C 44.300781 36.25 44.246094 36.394531 44.144531 36.550781 C 44.058594 36.695312 43.96875 36.792969 43.875 36.855469 L 43.585938 36.960938 L 43.273438 36.878906 C 43.226562 36.851562 43.089844 36.773438 42.878906 36.644531 L 42.679688 36.519531 L 42.28125 36.273438 C 42.035156 36.117188 41.882812 36.011719 41.820312 35.953125 L 41.785156 35.878906 C 41.78125 35.832031 41.820312 35.746094 41.898438 35.621094 L 41.757812 35.535156 L 41.714844 35.597656 L 41.578125 35.832031 L 41.4375 36.070312 L 41.074219 36.625 L 41.222656 36.714844 L 41.382812 36.5 L 41.453125 36.492188 L 41.578125 36.535156 C 41.710938 36.609375 41.855469 36.695312 42.019531 36.792969 L 42.457031 37.070312 L 42.785156 37.28125 C 42.96875 37.386719 43.082031 37.460938 43.128906 37.476562 L 43.375 37.542969 L 43.671875 37.503906 L 43.976562 37.316406 C 44.121094 37.191406 44.246094 37.046875 44.355469 36.871094 C 44.453125 36.726562 44.511719 36.578125 44.554688 36.445312 C 44.589844 36.3125 44.605469 36.1875 44.59375 36.058594 C 44.582031 35.945312 44.554688 35.832031 44.5 35.742188 L 44.277344 35.472656 L 43.96875 35.246094 L 43.566406 35 C 43.441406 34.921875 43.277344 34.816406 43.082031 34.675781 C 42.878906 34.539062 42.765625 34.460938 42.746094 34.433594 L 42.714844 34.371094 L 42.816406 34.152344 Z M 10.382812 34.597656 C 13.234375 34.628906 14.140625 36.539062 14.140625 36.539062 C 12.140625 35.199219 10.449219 34.742188 10.449219 34.742188 C 10.125 34.617188 10.140625 34.980469 10.140625 34.980469 C 9.960938 34.882812 9.785156 34.617188 9.785156 34.617188 C 9.992188 34.601562 10.191406 34.59375 10.382812 34.597656 Z M 39.714844 34.597656 C 39.90625 34.59375 40.105469 34.601562 40.3125 34.617188 C 40.3125 34.617188 40.132812 34.882812 39.953125 34.980469 C 39.953125 34.980469 39.96875 34.617188 39.648438 34.742188 C 39.648438 34.742188 37.953125 35.199219 35.960938 36.539062 C 35.960938 36.539062 36.859375 34.628906 39.714844 34.597656 Z M 14.820312 34.652344 C 16.042969 38.195312 16.875 38.253906 16.875 38.253906 L 16.875 38.394531 C 14.261719 37.382812 14.820312 34.652344 14.820312 34.652344 Z M 35.273438 34.652344 C 35.273438 34.652344 35.835938 37.382812 33.222656 38.394531 L 33.222656 38.253906 C 33.222656 38.253906 34.050781 38.195312 35.273438 34.652344 Z M 10.273438 35.101562 C 10.273438 35.101562 11.472656 35.375 13.867188 36.863281 C 13.867188 36.863281 11.761719 36.960938 10.273438 35.101562 Z M 39.824219 35.101562 C 38.332031 36.960938 36.230469 36.863281 36.230469 36.863281 C 38.621094 35.375 39.824219 35.101562 39.824219 35.101562 Z M 7.988281 35.367188 L 7.847656 35.464844 C 7.929688 35.597656 7.980469 35.683594 7.988281 35.722656 L 7.980469 35.765625 C 7.957031 35.796875 7.894531 35.863281 7.769531 35.957031 C 7.582031 36.09375 7.476562 36.171875 7.449219 36.1875 L 6.703125 36.722656 C 6.613281 36.777344 6.472656 36.875 6.28125 37.003906 L 6.042969 37.148438 L 5.828125 37.054688 L 5.742188 37.121094 C 5.992188 37.453125 6.125 37.640625 6.148438 37.660156 C 6.21875 37.761719 6.34375 37.941406 6.527344 38.207031 L 6.714844 38.476562 C 6.808594 38.609375 6.882812 38.707031 6.9375 38.769531 L 6.976562 38.777344 C 7.117188 38.675781 7.304688 38.558594 7.542969 38.425781 L 7.449219 38.289062 C 7.28125 38.375 7.164062 38.425781 7.097656 38.445312 L 7.050781 38.445312 L 6.886719 38.28125 L 6.640625 37.960938 C 6.554688 37.839844 6.484375 37.730469 6.425781 37.640625 L 6.621094 37.484375 L 7.320312 36.988281 L 7.523438 37.242188 L 7.710938 37.550781 L 7.71875 37.652344 C 7.703125 37.691406 7.632812 37.753906 7.5 37.84375 L 7.605469 37.984375 L 7.964844 37.722656 L 8.332031 37.46875 L 8.234375 37.332031 L 8.007812 37.460938 L 7.957031 37.460938 L 7.871094 37.367188 C 7.757812 37.214844 7.6875 37.121094 7.671875 37.09375 L 7.507812 36.851562 L 7.847656 36.609375 C 8.042969 36.472656 8.203125 36.371094 8.339844 36.292969 L 8.566406 36.589844 C 8.640625 36.695312 8.710938 36.808594 8.773438 36.925781 L 8.84375 37.074219 L 8.824219 37.121094 C 8.800781 37.148438 8.722656 37.210938 8.597656 37.304688 L 8.6875 37.4375 C 8.835938 37.34375 8.917969 37.289062 8.941406 37.28125 L 9.199219 37.140625 L 9.210938 37.113281 L 9.183594 37.054688 C 9.101562 36.929688 9.050781 36.851562 9.019531 36.808594 L 8.769531 36.472656 C 8.632812 36.292969 8.511719 36.125 8.40625 35.976562 L 8.253906 35.753906 Z M 17.03125 35.988281 C 17.03125 35.988281 17.210938 36.003906 17.445312 36.097656 C 17.445312 36.097656 17.226562 36.222656 17.390625 36.492188 C 17.390625 36.492188 18.816406 37.765625 19.984375 39.167969 C 19.984375 39.167969 18.527344 39.042969 17.03125 35.988281 Z M 33.0625 35.988281 C 31.570312 39.042969 30.109375 39.167969 30.109375 39.167969 C 31.28125 37.765625 32.703125 36.492188 32.703125 36.492188 C 32.867188 36.222656 32.648438 36.097656 32.648438 36.097656 C 32.882812 36.003906 33.0625 35.988281 33.0625 35.988281 Z M 17.824219 36.273438 C 19.335938 36.6875 20.019531 38.539062 20.019531 38.539062 C 19.953125 38.324219 17.824219 36.273438 17.824219 36.273438 Z M 32.269531 36.273438 C 32.269531 36.273438 30.148438 38.324219 30.078125 38.539062 C 30.078125 38.539062 30.761719 36.6875 32.269531 36.273438 Z M 40.984375 36.691406 C 40.859375 36.871094 40.71875 37.0625 40.566406 37.25 C 40.433594 37.429688 40.308594 37.578125 40.199219 37.714844 L 40.335938 37.820312 L 40.507812 37.628906 L 40.558594 37.605469 L 40.605469 37.613281 C 40.644531 37.632812 40.734375 37.691406 40.875 37.789062 C 40.933594 37.835938 41.074219 37.941406 41.289062 38.101562 L 41.960938 38.621094 C 42.066406 38.707031 42.1875 38.800781 42.308594 38.910156 L 42.449219 39.039062 L 42.46875 39.074219 L 42.445312 39.136719 L 42.308594 39.332031 L 42.453125 39.445312 C 42.546875 39.304688 42.660156 39.148438 42.800781 38.972656 C 42.953125 38.777344 43.097656 38.59375 43.238281 38.421875 L 43.097656 38.316406 L 42.9375 38.496094 L 42.882812 38.53125 L 42.828125 38.523438 L 42.601562 38.375 L 42.304688 38.15625 L 41.652344 37.652344 C 41.632812 37.640625 41.496094 37.527344 41.234375 37.316406 L 41.074219 37.191406 L 40.988281 37.09375 L 40.976562 37.0625 L 40.992188 37 L 41.125 36.800781 Z M 20.183594 37.078125 C 23.0625 38.054688 23.023438 40.121094 23.023438 40.121094 C 22.648438 40 20.792969 37.640625 20.792969 37.640625 C 20.308594 37.425781 20.488281 37.929688 20.488281 37.929688 C 21.191406 38.792969 22.21875 40.019531 22.21875 40.019531 C 20.539062 39.695312 20.183594 37.078125 20.183594 37.078125 Z M 29.910156 37.078125 C 29.910156 37.078125 29.550781 39.695312 27.878906 40.019531 C 27.878906 40.019531 28.902344 38.792969 29.609375 37.929688 C 29.609375 37.929688 29.785156 37.425781 29.300781 37.640625 C 29.300781 37.640625 27.445312 40 27.066406 40.121094 C 27.066406 40.121094 27.03125 38.054688 29.910156 37.078125 Z M 17.285156 37.300781 C 17.285156 37.300781 17.878906 38.175781 18.042969 38.359375 L 17.574219 38.410156 C 17.574219 38.410156 17.609375 38.128906 17.304688 38.050781 Z M 32.804688 37.300781 L 32.792969 38.050781 C 32.484375 38.128906 32.519531 38.410156 32.519531 38.410156 L 32.054688 38.359375 C 32.210938 38.175781 32.804688 37.300781 32.804688 37.300781 Z M 13.363281 37.304688 C 14.316406 37.273438 15.109375 37.605469 15.109375 37.605469 C 15.144531 37.730469 15.832031 38.304688 15.832031 38.304688 C 14.746094 37.980469 12.683594 37.640625 12.683594 37.640625 C 12.300781 37.746094 12.609375 38.015625 12.609375 38.015625 C 14.246094 38.324219 15.917969 38.792969 15.917969 38.792969 C 13.417969 39.5 11.617188 37.890625 11.617188 37.890625 C 12.164062 37.464844 12.792969 37.320312 13.363281 37.304688 Z M 36.734375 37.304688 C 37.304688 37.320312 37.929688 37.464844 38.472656 37.890625 C 38.472656 37.890625 36.675781 39.5 34.175781 38.792969 C 34.175781 38.792969 35.851562 38.324219 37.488281 38.015625 C 37.488281 38.015625 37.792969 37.746094 37.417969 37.640625 C 37.417969 37.640625 35.347656 37.980469 34.269531 38.304688 C 34.269531 38.304688 34.949219 37.730469 34.988281 37.605469 C 34.988281 37.605469 35.78125 37.273438 36.734375 37.304688 Z M 40.160156 37.777344 L 40.035156 37.925781 C 39.957031 38.003906 39.796875 38.171875 39.5625 38.414062 L 38.988281 39.007812 C 38.757812 39.242188 38.597656 39.402344 38.515625 39.480469 L 38.367188 39.621094 L 38.371094 39.648438 L 38.519531 39.769531 C 38.546875 39.785156 38.660156 39.894531 38.859375 40.085938 L 38.984375 39.964844 L 38.773438 39.722656 L 38.738281 39.65625 L 38.78125 39.59375 L 39.039062 39.300781 L 39.242188 39.089844 C 39.277344 39.113281 39.410156 39.246094 39.648438 39.472656 L 40.519531 40.324219 C 40.730469 40.527344 40.851562 40.65625 40.878906 40.707031 L 40.898438 40.808594 L 40.71875 41.035156 L 40.835938 41.152344 C 41.003906 40.964844 41.15625 40.804688 41.289062 40.660156 C 41.414062 40.535156 41.574219 40.386719 41.761719 40.203125 L 41.644531 40.085938 L 41.417969 40.269531 L 41.316406 40.261719 C 41.265625 40.226562 41.136719 40.113281 40.925781 39.90625 L 40.050781 39.0625 C 39.816406 38.832031 39.6875 38.707031 39.65625 38.671875 L 39.855469 38.457031 L 40.148438 38.183594 L 40.203125 38.152344 L 40.285156 38.1875 L 40.519531 38.378906 L 40.644531 38.257812 C 40.4375 38.050781 40.332031 37.953125 40.324219 37.941406 L 40.183594 37.777344 Z M 10.246094 38.261719 L 9.785156 38.4375 L 8.460938 38.929688 C 8.210938 39.023438 8.042969 39.085938 7.957031 39.113281 C 7.769531 39.179688 7.664062 39.214844 7.636719 39.222656 L 7.558594 39.230469 L 7.5 39.207031 L 7.351562 39.078125 L 7.226562 39.191406 L 7.554688 39.53125 L 7.859375 39.886719 L 7.984375 39.769531 C 7.878906 39.648438 7.824219 39.566406 7.816406 39.53125 L 7.847656 39.460938 C 7.878906 39.429688 7.988281 39.371094 8.171875 39.300781 L 8.414062 39.203125 L 9.113281 39.972656 L 8.90625 40.402344 L 8.8125 40.542969 L 8.75 40.566406 C 8.722656 40.554688 8.660156 40.492188 8.535156 40.382812 L 8.414062 40.492188 L 8.90625 41.015625 L 9.273438 41.429688 L 9.398438 41.324219 L 9.347656 41.25 L 9.277344 41.152344 L 9.269531 41.105469 L 9.28125 41.039062 L 9.363281 40.855469 L 9.488281 40.570312 L 10.441406 38.472656 Z M 9.699219 38.71875 L 9.21875 39.738281 C 9.136719 39.65625 9.035156 39.558594 8.933594 39.433594 L 8.644531 39.113281 Z M 17.671875 38.835938 C 18 38.828125 18.355469 38.886719 18.742188 39.042969 C 18.742188 39.042969 16.113281 39.835938 15.832031 39.980469 C 15.832031 39.980469 15.667969 40.035156 15.703125 40.210938 L 15.449219 40.199219 C 15.449219 40.199219 16.261719 38.875 17.671875 38.835938 Z M 32.425781 38.835938 C 33.835938 38.875 34.644531 40.199219 34.644531 40.199219 L 34.394531 40.210938 C 34.429688 40.035156 34.269531 39.980469 34.269531 39.980469 C 33.980469 39.835938 31.351562 39.042969 31.351562 39.042969 C 31.742188 38.886719 32.097656 38.828125 32.425781 38.835938 Z M 11.089844 39.265625 L 10.984375 39.429688 C 10.964844 39.457031 10.863281 39.582031 10.695312 39.800781 L 10.828125 39.90625 L 11.054688 39.683594 L 11.117188 39.636719 L 11.1875 39.671875 L 11.496094 39.90625 L 11.722656 40.085938 C 11.699219 40.121094 11.585938 40.269531 11.375 40.523438 L 10.609375 41.46875 C 10.425781 41.699219 10.308594 41.832031 10.261719 41.863281 L 10.160156 41.894531 C 10.125 41.882812 10.042969 41.832031 9.914062 41.730469 L 9.808594 41.863281 C 10.011719 42.011719 10.1875 42.140625 10.335938 42.265625 C 10.476562 42.382812 10.648438 42.523438 10.847656 42.695312 L 10.949219 42.570312 C 10.824219 42.460938 10.753906 42.390625 10.746094 42.359375 L 10.746094 42.257812 C 10.769531 42.207031 10.875 42.0625 11.058594 41.835938 L 11.828125 40.890625 C 12.03125 40.640625 12.148438 40.496094 12.183594 40.464844 L 12.40625 40.644531 C 12.53125 40.742188 12.628906 40.832031 12.707031 40.910156 L 12.75 40.960938 L 12.714844 41.046875 L 12.546875 41.300781 L 12.679688 41.40625 C 12.859375 41.1875 12.953125 41.066406 12.964844 41.0625 L 13.121094 40.910156 L 13.113281 40.882812 L 12.957031 40.773438 C 12.867188 40.703125 12.691406 40.554688 12.421875 40.351562 L 11.785156 39.828125 C 11.527344 39.621094 11.351562 39.472656 11.265625 39.402344 L 11.117188 39.265625 Z M 19.285156 39.351562 L 19.480469 39.457031 C 19.480469 39.457031 18.242188 40.304688 16.421875 40.210938 C 16.421875 40.210938 18.800781 39.421875 19.285156 39.351562 Z M 30.8125 39.351562 C 31.300781 39.421875 33.675781 40.210938 33.675781 40.210938 C 31.859375 40.304688 30.613281 39.457031 30.613281 39.457031 Z M 19.914062 39.65625 L 20.382812 39.746094 C 19.878906 40.199219 19.027344 40.320312 19.027344 40.320312 C 19.355469 40.070312 19.914062 39.65625 19.914062 39.65625 Z M 30.183594 39.65625 C 30.183594 39.65625 30.742188 40.070312 31.066406 40.320312 C 31.066406 40.320312 30.21875 40.199219 29.714844 39.746094 Z M 38.265625 39.683594 C 38.105469 39.835938 37.929688 39.992188 37.738281 40.148438 C 37.574219 40.289062 37.417969 40.414062 37.285156 40.519531 L 37.398438 40.65625 L 37.605469 40.5 L 37.660156 40.492188 L 37.699219 40.511719 C 37.738281 40.535156 37.808594 40.609375 37.929688 40.738281 C 37.980469 40.796875 38.09375 40.929688 38.265625 41.128906 L 38.816406 41.78125 C 38.90625 41.890625 39 42.007812 39.097656 42.132812 L 39.207031 42.292969 L 39.21875 42.328125 L 39.183594 42.382812 L 39.007812 42.546875 L 39.125 42.691406 C 39.25 42.570312 39.394531 42.441406 39.558594 42.296875 C 39.75 42.132812 39.929688 41.988281 40.105469 41.851562 L 39.996094 41.71875 L 39.796875 41.863281 L 39.734375 41.882812 L 39.6875 41.863281 L 39.5 41.675781 L 39.25 41.390625 L 38.722656 40.765625 C 38.703125 40.75 38.589844 40.609375 38.375 40.351562 L 38.253906 40.199219 L 38.183594 40.082031 L 38.179688 40.046875 L 38.207031 39.992188 L 38.382812 39.824219 Z M 37.234375 40.609375 L 36.875 40.859375 L 36.4375 41.136719 L 36.535156 41.28125 L 36.726562 41.171875 L 36.792969 41.144531 L 36.832031 41.148438 L 36.871094 41.1875 L 36.898438 41.222656 C 36.914062 41.277344 36.941406 41.390625 36.984375 41.558594 C 37.039062 41.804688 37.066406 41.933594 37.070312 41.964844 L 37.304688 43.144531 L 36.1875 42.382812 L 36.152344 42.351562 L 35.976562 42.230469 C 35.785156 42.097656 35.675781 42.011719 35.652344 41.976562 L 35.636719 41.921875 L 35.675781 41.867188 L 35.871094 41.71875 L 35.773438 41.574219 L 35.171875 41.976562 C 35.113281 42.019531 34.945312 42.125 34.667969 42.292969 L 34.765625 42.441406 L 34.996094 42.332031 L 35.195312 42.414062 C 35.296875 42.472656 35.585938 42.667969 36.070312 42.996094 L 36.691406 43.414062 C 36.921875 43.574219 37.160156 43.738281 37.410156 43.914062 L 37.671875 43.742188 C 37.609375 43.503906 37.527344 43.085938 37.417969 42.492188 L 37.289062 41.792969 L 37.222656 41.429688 C 37.164062 41.136719 37.148438 40.964844 37.164062 40.925781 L 37.332031 40.757812 Z M 25.046875 40.734375 C 26.664062 40.773438 28.058594 41.277344 28.058594 41.277344 C 26.683594 41.574219 25.253906 41.574219 25.058594 41.5625 L 25.039062 41.5625 C 24.84375 41.574219 23.410156 41.574219 22.035156 41.277344 C 22.035156 41.277344 23.433594 40.773438 25.046875 40.734375 Z M 13.171875 40.960938 L 13.074219 41.109375 C 13.195312 41.195312 13.261719 41.246094 13.277344 41.265625 L 13.308594 41.308594 L 13.296875 41.359375 C 13.285156 41.402344 13.234375 41.488281 13.148438 41.640625 C 13.105469 41.710938 13.015625 41.855469 12.867188 42.082031 L 12.40625 42.792969 C 12.328125 42.90625 12.242188 43.03125 12.148438 43.164062 L 12.03125 43.3125 L 11.996094 43.332031 L 11.933594 43.3125 C 11.914062 43.3125 11.84375 43.269531 11.722656 43.199219 L 11.625 43.347656 C 11.773438 43.4375 11.9375 43.53125 12.121094 43.660156 C 12.332031 43.792969 12.53125 43.925781 12.707031 44.054688 L 12.808594 43.902344 L 12.609375 43.757812 L 12.574219 43.703125 L 12.574219 43.652344 L 12.703125 43.414062 L 12.902344 43.09375 L 13.347656 42.410156 C 13.359375 42.386719 13.457031 42.242188 13.644531 41.964844 L 13.761719 41.804688 L 13.847656 41.699219 L 13.882812 41.679688 L 13.941406 41.691406 L 14.15625 41.8125 L 14.257812 41.664062 C 14.0625 41.550781 13.863281 41.425781 13.652344 41.292969 C 13.46875 41.171875 13.308594 41.058594 13.171875 40.960938 Z M 14.308594 41.765625 L 14.230469 41.921875 L 14.433594 42.070312 C 14.453125 42.097656 14.464844 42.164062 14.464844 42.285156 C 14.457031 42.398438 14.4375 42.75 14.394531 43.335938 L 14.335938 44.085938 C 14.3125 44.355469 14.289062 44.644531 14.261719 44.949219 L 14.539062 45.085938 C 14.714844 44.921875 15.03125 44.640625 15.496094 44.253906 L 16.039062 43.792969 L 16.320312 43.5625 C 16.554688 43.363281 16.691406 43.261719 16.738281 43.253906 C 16.761719 43.253906 16.839844 43.269531 16.960938 43.320312 L 17.042969 43.164062 L 16.640625 42.976562 L 16.191406 42.726562 L 16.109375 42.882812 L 16.300781 43 L 16.367188 43.042969 L 16.375 43.078125 L 16.367188 43.128906 L 16.339844 43.175781 C 16.300781 43.21875 16.21875 43.296875 16.089844 43.414062 C 15.910156 43.578125 15.8125 43.667969 15.785156 43.6875 L 14.875 44.480469 L 14.992188 43.128906 L 14.992188 43.089844 C 14.996094 43.078125 15 43.003906 15.011719 42.871094 C 15.03125 42.636719 15.050781 42.5 15.074219 42.464844 L 15.109375 42.429688 L 15.175781 42.429688 L 15.40625 42.523438 L 15.484375 42.363281 L 14.832031 42.050781 C 14.769531 42.015625 14.597656 41.921875 14.308594 41.765625 Z M 34.253906 42.515625 C 34.140625 42.53125 33.992188 42.589844 33.804688 42.683594 C 33.707031 42.730469 33.582031 42.792969 33.433594 42.878906 C 33.347656 42.925781 33.238281 42.984375 33.113281 43.046875 C 32.960938 43.117188 32.851562 43.175781 32.761719 43.214844 C 32.59375 43.289062 32.5 43.339844 32.46875 43.355469 L 32.539062 43.5 C 32.699219 43.4375 32.792969 43.402344 32.832031 43.402344 L 32.875 43.421875 C 32.898438 43.449219 32.953125 43.53125 33.03125 43.6875 L 33.226562 44.066406 L 33.566406 44.734375 L 33.808594 45.277344 L 33.902344 45.5 L 33.910156 45.5625 L 33.882812 45.59375 C 33.863281 45.613281 33.785156 45.664062 33.652344 45.738281 L 33.730469 45.902344 C 33.886719 45.8125 34.0625 45.714844 34.25 45.625 C 34.464844 45.519531 34.675781 45.417969 34.886719 45.324219 L 34.8125 45.164062 C 34.6875 45.21875 34.617188 45.25 34.59375 45.261719 L 34.527344 45.261719 L 34.488281 45.25 L 34.40625 45.125 C 34.390625 45.097656 34.308594 44.953125 34.1875 44.703125 C 34.082031 44.507812 33.980469 44.316406 33.890625 44.128906 C 33.835938 44.015625 33.722656 43.78125 33.566406 43.4375 C 33.488281 43.28125 33.445312 43.179688 33.421875 43.140625 L 33.59375 43.035156 C 33.722656 42.964844 33.816406 42.933594 33.878906 42.925781 L 34.148438 42.984375 L 34.371094 43.226562 L 34.441406 43.5625 L 34.347656 43.839844 C 34.292969 43.914062 34.1875 43.984375 34.042969 44.050781 L 34.050781 44.113281 L 34.222656 44.183594 C 34.359375 44.246094 34.519531 44.347656 34.722656 44.476562 L 35.429688 44.925781 L 35.527344 45.003906 L 35.8125 44.859375 C 35.894531 44.8125 36.03125 44.75 36.222656 44.664062 L 36.144531 44.507812 L 36.023438 44.550781 L 35.9375 44.539062 C 35.910156 44.527344 35.820312 44.484375 35.667969 44.40625 C 35.660156 44.402344 35.585938 44.363281 35.457031 44.289062 L 34.964844 44 L 34.921875 43.980469 L 34.808594 43.902344 L 34.617188 43.785156 C 34.773438 43.625 34.863281 43.457031 34.898438 43.296875 C 34.925781 43.128906 34.910156 42.976562 34.835938 42.828125 C 34.773438 42.703125 34.6875 42.621094 34.578125 42.5625 Z M 17.132812 43.203125 L 17.070312 43.371094 C 17.207031 43.433594 17.28125 43.464844 17.304688 43.476562 L 17.34375 43.515625 L 17.34375 43.5625 C 17.339844 43.605469 17.308594 43.714844 17.253906 43.875 C 17.226562 43.945312 17.167969 44.109375 17.074219 44.363281 L 16.769531 45.152344 C 16.722656 45.28125 16.667969 45.421875 16.59375 45.570312 L 16.515625 45.746094 L 16.480469 45.761719 L 16.425781 45.761719 C 16.398438 45.761719 16.324219 45.738281 16.191406 45.695312 L 16.125 45.855469 C 16.289062 45.914062 16.472656 45.976562 16.675781 46.054688 C 16.910156 46.140625 17.132812 46.230469 17.335938 46.324219 L 17.394531 46.152344 C 17.273438 46.101562 17.199219 46.066406 17.175781 46.054688 L 17.125 46.011719 L 17.117188 45.960938 C 17.121094 45.914062 17.144531 45.824219 17.199219 45.695312 L 17.320312 45.347656 L 17.609375 44.582031 C 17.621094 44.558594 17.6875 44.394531 17.808594 44.085938 L 17.886719 43.898438 L 17.953125 43.777344 L 17.984375 43.757812 L 18.042969 43.757812 C 18.066406 43.757812 18.148438 43.78125 18.277344 43.828125 L 18.339844 43.660156 C 18.128906 43.589844 17.914062 43.507812 17.679688 43.425781 C 17.472656 43.339844 17.292969 43.273438 17.132812 43.203125 Z M 32.246094 43.40625 L 32.175781 43.414062 C 32.035156 43.457031 31.933594 43.488281 31.886719 43.5 L 31.5 43.640625 C 31.285156 43.714844 31.089844 43.78125 30.914062 43.839844 L 30.660156 43.921875 L 30.210938 44.054688 L 30.261719 44.21875 C 30.414062 44.183594 30.515625 44.160156 30.550781 44.167969 L 30.589844 44.1875 C 30.613281 44.214844 30.652344 44.300781 30.703125 44.445312 C 30.78125 44.65625 30.828125 44.789062 30.839844 44.816406 L 31.117188 45.6875 C 31.152344 45.785156 31.199219 45.949219 31.261719 46.171875 C 31.296875 46.296875 31.320312 46.386719 31.328125 46.445312 L 31.175781 46.617188 L 31.210938 46.722656 C 31.605469 46.585938 31.820312 46.507812 31.851562 46.5 C 31.96875 46.460938 32.183594 46.398438 32.484375 46.296875 L 32.800781 46.207031 C 32.949219 46.152344 33.066406 46.109375 33.148438 46.074219 L 33.160156 46.039062 C 33.109375 45.875 33.054688 45.660156 33.003906 45.402344 L 32.839844 45.445312 C 32.871094 45.625 32.882812 45.753906 32.882812 45.824219 L 32.871094 45.859375 L 32.664062 45.976562 C 32.550781 46.023438 32.425781 46.066406 32.285156 46.113281 C 32.144531 46.160156 32.011719 46.199219 31.910156 46.230469 L 31.824219 45.988281 L 31.554688 45.171875 C 31.636719 45.136719 31.734375 45.101562 31.859375 45.058594 C 32 45.015625 32.117188 44.988281 32.210938 44.96875 L 32.3125 44.992188 C 32.34375 45.015625 32.386719 45.109375 32.429688 45.261719 L 32.59375 45.203125 L 32.449219 44.789062 L 32.316406 44.355469 L 32.160156 44.40625 C 32.199219 44.527344 32.210938 44.601562 32.210938 44.664062 L 32.203125 44.707031 L 32.082031 44.765625 C 31.902344 44.828125 31.796875 44.867188 31.765625 44.875 L 31.488281 44.960938 L 31.359375 44.5625 C 31.28125 44.335938 31.230469 44.152344 31.203125 43.996094 C 31.320312 43.953125 31.433594 43.910156 31.550781 43.871094 C 31.667969 43.824219 31.796875 43.792969 31.929688 43.769531 L 32.09375 43.753906 L 32.132812 43.777344 C 32.152344 43.8125 32.191406 43.902344 32.242188 44.054688 L 32.390625 44 C 32.351562 43.828125 32.324219 43.742188 32.316406 43.714844 L 32.265625 43.433594 Z M 18.503906 43.703125 L 18.480469 43.714844 L 18.445312 43.910156 C 18.433594 43.941406 18.394531 44.089844 18.324219 44.363281 L 18.484375 44.40625 L 18.601562 44.113281 L 18.648438 44.054688 L 18.730469 44.054688 C 18.835938 44.085938 18.964844 44.109375 19.101562 44.152344 L 19.378906 44.230469 C 19.371094 44.273438 19.324219 44.453125 19.226562 44.765625 L 18.886719 45.9375 C 18.808594 46.214844 18.753906 46.386719 18.722656 46.4375 L 18.636719 46.5 C 18.609375 46.503906 18.511719 46.488281 18.351562 46.449219 L 18.304688 46.605469 C 18.550781 46.667969 18.765625 46.722656 18.949219 46.773438 C 19.125 46.820312 19.332031 46.890625 19.582031 46.980469 L 19.628906 46.816406 C 19.472656 46.765625 19.382812 46.730469 19.359375 46.707031 L 19.324219 46.613281 C 19.324219 46.546875 19.367188 46.378906 19.445312 46.101562 L 19.789062 44.929688 C 19.878906 44.621094 19.933594 44.4375 19.953125 44.394531 L 20.226562 44.480469 C 20.378906 44.527344 20.503906 44.566406 20.609375 44.601562 L 20.671875 44.636719 L 20.671875 44.730469 L 20.613281 45.019531 L 20.773438 45.074219 C 20.855469 44.800781 20.898438 44.65625 20.902344 44.644531 L 20.984375 44.445312 L 20.96875 44.421875 L 20.785156 44.382812 C 20.671875 44.355469 20.453125 44.289062 20.125 44.199219 L 19.335938 43.96875 C 19.019531 43.875 18.804688 43.8125 18.691406 43.773438 Z M 29.476562 44.207031 C 29.339844 44.207031 29.199219 44.21875 29.058594 44.246094 C 28.921875 44.277344 28.792969 44.316406 28.671875 44.367188 C 28.546875 44.425781 28.441406 44.496094 28.351562 44.585938 C 28.265625 44.675781 28.199219 44.789062 28.164062 44.925781 C 28.121094 45.058594 28.117188 45.210938 28.144531 45.359375 L 28.257812 45.640625 L 28.460938 45.847656 C 28.539062 45.90625 28.640625 45.933594 28.765625 45.949219 C 28.847656 45.953125 29.011719 45.960938 29.261719 45.964844 C 29.4375 45.96875 29.558594 45.984375 29.632812 46.011719 L 29.8125 46.125 L 29.894531 46.332031 L 29.878906 46.609375 L 29.703125 46.835938 C 29.613281 46.902344 29.5 46.945312 29.378906 46.96875 C 29.234375 46.996094 29.089844 46.996094 28.957031 46.953125 C 28.824219 46.914062 28.722656 46.859375 28.65625 46.785156 C 28.609375 46.648438 28.578125 46.53125 28.5625 46.433594 L 28.402344 46.460938 C 28.453125 46.773438 28.480469 47.007812 28.46875 47.171875 C 28.636719 47.210938 28.785156 47.242188 28.921875 47.246094 C 29.050781 47.25 29.199219 47.238281 29.367188 47.210938 C 29.585938 47.164062 29.773438 47.09375 29.921875 47.003906 L 30.179688 46.761719 L 30.347656 46.457031 C 30.394531 46.3125 30.402344 46.15625 30.367188 45.984375 L 30.273438 45.734375 L 30.148438 45.554688 L 29.960938 45.449219 L 29.675781 45.402344 C 29.636719 45.402344 29.539062 45.402344 29.398438 45.402344 C 29.253906 45.402344 29.148438 45.410156 29.066406 45.402344 L 28.816406 45.363281 L 28.671875 45.257812 L 28.589844 45.046875 C 28.5625 44.925781 28.59375 44.808594 28.675781 44.699219 C 28.757812 44.585938 28.886719 44.515625 29.070312 44.484375 C 29.191406 44.457031 29.308594 44.457031 29.421875 44.484375 L 29.667969 44.597656 C 29.695312 44.65625 29.722656 44.765625 29.757812 44.921875 L 29.921875 44.886719 C 29.894531 44.753906 29.886719 44.640625 29.875 44.558594 L 29.867188 44.292969 L 29.839844 44.25 C 29.742188 44.21875 29.617188 44.207031 29.476562 44.207031 Z M 21.921875 44.4375 L 21.671875 44.867188 L 20.929688 46.066406 C 20.792969 46.296875 20.695312 46.449219 20.648438 46.527344 C 20.542969 46.6875 20.480469 46.78125 20.464844 46.808594 L 20.40625 46.863281 L 20.34375 46.882812 L 20.152344 46.863281 L 20.121094 47.035156 L 20.585938 47.097656 L 21.046875 47.191406 L 21.074219 47.023438 C 20.917969 46.996094 20.824219 46.964844 20.792969 46.945312 L 20.773438 46.863281 C 20.785156 46.820312 20.832031 46.707031 20.929688 46.542969 L 21.058594 46.3125 L 22.089844 46.480469 L 22.191406 46.953125 L 22.207031 47.125 L 22.164062 47.179688 C 22.144531 47.183594 22.050781 47.179688 21.890625 47.160156 L 21.859375 47.328125 L 22.566406 47.433594 L 23.121094 47.539062 L 23.152344 47.367188 L 23.0625 47.34375 L 22.945312 47.308594 L 22.910156 47.28125 L 22.878906 47.21875 L 22.832031 47.023438 L 22.753906 46.730469 L 22.207031 44.488281 Z M 24.828125 44.671875 C 24.6875 44.671875 24.550781 44.675781 24.417969 44.710938 C 24.289062 44.734375 24.175781 44.792969 24.066406 44.859375 C 23.964844 44.925781 23.875 45.019531 23.8125 45.152344 C 23.746094 45.28125 23.714844 45.417969 23.710938 45.570312 L 23.757812 45.875 L 23.917969 46.113281 C 23.984375 46.1875 24.078125 46.242188 24.195312 46.273438 C 24.277344 46.296875 24.429688 46.335938 24.675781 46.398438 C 24.851562 46.433594 24.96875 46.46875 25.035156 46.507812 L 25.183594 46.65625 L 25.222656 46.882812 L 25.15625 47.152344 L 24.9375 47.335938 C 24.832031 47.382812 24.714844 47.402344 24.589844 47.398438 C 24.441406 47.398438 24.304688 47.363281 24.179688 47.296875 C 24.054688 47.234375 23.972656 47.160156 23.921875 47.074219 C 23.90625 46.933594 23.898438 46.808594 23.898438 46.707031 L 23.730469 46.707031 C 23.726562 47.023438 23.699219 47.253906 23.660156 47.410156 C 23.8125 47.488281 23.953125 47.550781 24.085938 47.578125 C 24.210938 47.609375 24.363281 47.632812 24.527344 47.632812 C 24.753906 47.632812 24.953125 47.605469 25.113281 47.539062 L 25.414062 47.355469 L 25.644531 47.089844 C 25.71875 46.960938 25.753906 46.808594 25.757812 46.632812 L 25.722656 46.367188 L 25.621094 46.167969 L 25.46875 46.03125 L 25.195312 45.921875 C 25.160156 45.910156 25.066406 45.898438 24.925781 45.875 C 24.792969 45.847656 24.675781 45.824219 24.601562 45.804688 L 24.363281 45.710938 L 24.246094 45.578125 L 24.203125 45.359375 C 24.203125 45.230469 24.257812 45.125 24.363281 45.035156 C 24.464844 44.945312 24.605469 44.898438 24.792969 44.902344 C 24.921875 44.90625 25.039062 44.925781 25.136719 44.972656 L 25.355469 45.136719 C 25.367188 45.203125 25.371094 45.3125 25.371094 45.464844 L 25.539062 45.476562 C 25.546875 45.335938 25.554688 45.226562 25.5625 45.136719 L 25.609375 44.882812 L 25.59375 44.832031 C 25.496094 44.78125 25.378906 44.738281 25.246094 44.710938 C 25.113281 44.6875 24.972656 44.675781 24.828125 44.671875 Z M 21.773438 45.132812 L 22.03125 46.242188 C 21.90625 46.222656 21.769531 46.203125 21.617188 46.171875 C 21.457031 46.148438 21.316406 46.125 21.191406 46.101562 Z M 21.773438 45.132812 "/>
</g>
</svg>
